<svg xmlns="http://www.w3.org/2000/svg" xmlns:xlink="http://www.w3.org/1999/xlink" id="Layer_1" width="305.608" height="477.57" x="0" y="0" enable-background="new 0 0 305.608 477.57" version="1.1" viewBox="0 0 305.608 477.57" xml:space="preserve"><switch><g><path d="M290.932,36.978c-4.758-2.545-9.604-4.945-14.514-7.231l-4.271,7.727c1.312,0.607,2.609,1.241,3.914,1.863l-12.859,13.746 c-0.379-0.142-0.756-0.29-1.137-0.43c-15.252-5.597-31.061-10.039-47.314-13.245l2.295-20.805 c1.941,0.446,3.887,0.882,5.812,1.368l2.379-8.444c-12.072-3.059-24.447-5.353-37.066-6.854l-0.957,8.715 c2.148,0.256,4.281,0.565,6.416,0.869l-8.221,20.794c-10.543-1.066-21.234-1.631-32.056-1.634v-0.001 c-0.014,0-0.025,0.001-0.039,0.001s-0.025-0.001-0.039-0.001v0.001c-10.822,0.003-21.514,0.567-32.057,1.634l-8.221-20.794 c2.135-0.304,4.268-0.613,6.416-0.869l-0.957-8.715c-12.619,1.502-24.994,3.796-37.067,6.854l2.379,8.444 c1.926-0.486,3.871-0.922,5.812-1.368l2.295,20.805c-16.253,3.206-32.062,7.648-47.314,13.245c-0.381,0.14-0.758,0.288-1.138,0.43 L30.564,39.336c1.304-0.622,2.601-1.256,3.913-1.863l-4.271-7.727c-4.91,2.286-9.757,4.687-14.515,7.231 c-4.136,2.212-8.189,4.556-12.203,6.958l5.254,7.072c1.499-0.891,3.009-1.766,4.521-2.636l8.688,13.594l27.934,43.704h206.852 l27.934-43.704l8.689-13.594c1.512,0.87,3.021,1.745,4.52,2.636l5.254-7.072C299.124,41.534,295.069,39.19,290.932,36.978z"/><path fill="#FD0" d="M289.479,39.624c-3.738-1.999-7.707-4-11.834-5.965l-1.367,2.473l4.736,2.261l-17.023,18.197l-2.998-1.121 c-15.15-5.558-30.918-9.972-46.863-13.117l-2.703-0.533l2.969-26.894c0,0,5.648,1.297,6.32,1.453l0.754-2.684 c-10.039-2.425-20.336-4.327-30.688-5.669l-0.305,2.763c0.973,0.133,7.301,1.035,7.301,1.035l-10.453,26.439l-2.258-0.228 c-9.596-0.97-19.26-1.509-31.714-1.604V36.43c-0.014,0-0.025,0-0.039,0s-0.025,0-0.039,0v0.001 c-12.455,0.095-22.119,0.634-31.715,1.604l-2.258,0.228l-10.453-26.439c0,0,6.328-0.902,7.301-1.035l-0.305-2.763 c-10.352,1.342-20.649,3.244-30.689,5.669l0.756,2.684c0.672-0.156,6.32-1.453,6.32-1.453l2.967,26.894l-2.703,0.533 c-15.945,3.146-31.712,7.56-46.862,13.117l-2.998,1.121L25.612,38.392l4.735-2.261l-1.367-2.473 c-4.127,1.965-8.097,3.966-11.834,5.965c-2.886,1.544-5.87,3.224-9.226,5.195l1.663,2.239c0.74-0.431,4.706-2.714,4.706-2.714 l25.811,40.384c33.898-14.512,71.084-22.732,113.154-23.137c42.07,0.404,79.371,8.625,113.271,23.137l25.809-40.384 c0,0,3.967,2.283,4.707,2.714l1.664-2.239C295.35,42.847,292.366,41.167,289.479,39.624z"/><path d="M293.36,48.374c0.951,0.55,4.529,2.626,4.529,2.626l5.254-7.074l-2.879-1.693c-3.355-1.971-6.406-3.689-9.332-5.254 c-3.773-2.019-7.797-4.047-11.957-6.028l-2.551-1.213l-4.273,7.729l3.906,1.865l-34.832,36.897 c-10.59-3.482-18.885-5.714-29.822-7.951l5.639-49.676l5.822,1.347l2.379-8.439l-3.029-0.731 c-10.133-2.447-20.564-4.375-31.008-5.729l-3.031-0.393l-0.961,8.708l2.896,0.396c0.438,0.06,1.967,0.276,3.51,0.495 l-19.582,49.099c-6.402-0.485-9.789-0.225-16.22-0.29h-2.318l4.797,18.77l18.958-16.057c8.734,0.789,17.49,1.988,26.092,3.573 l-0.133,1.185l39.438,11.014l1.416-1.508c6.508,2.239,12.998,4.74,19.316,7.445l2.338,1.001L293.36,48.374z"/><path fill="#FD0" d="M177.217,63.571l20.6-51.748c0,0-6.328-0.902-7.301-1.035l0.305-2.763 c10.352,1.342,20.648,3.244,30.688,5.669l-0.754,2.684c-0.672-0.156-6.32-1.453-6.32-1.453l-5.957,53.407l35.23,9.839 l37.346-39.778l-4.736-2.261l1.367-2.473c4.127,1.965,8.096,3.966,11.834,5.965c2.887,1.544,5.871,3.224,9.227,5.195l-1.664,2.239 c-0.74-0.431-4.707-2.714-4.707-2.714l-25.809,40.384c-33.91-14.517-71.166-22.703-110.291-23.103l5.391,15.117L177.217,63.571z"/><path d="M13.266,48.374C12.313,48.923,8.735,51,8.735,51l-5.254-7.074l2.881-1.693c3.354-1.971,6.406-3.689,9.33-5.254 c3.773-2.019,7.798-4.047,11.959-6.028l2.55-1.213l4.273,7.729l-3.905,1.865L65.4,76.229c10.59-3.482,18.885-5.714,29.821-7.951 l-5.638-49.676l-5.823,1.347l-2.377-8.439l3.028-0.731c10.133-2.447,20.565-4.375,31.009-5.729l3.031-0.393l0.961,8.708 l-2.896,0.396c-0.438,0.06-1.967,0.276-3.51,0.495l19.582,49.099c6.402-0.485,9.789-0.225,16.221-0.29h2.318l-4.797,18.77 l-18.959-16.057c-8.734,0.789-17.49,1.988-26.092,3.573l0.133,1.185L61.975,81.548l-1.416-1.508 c-6.509,2.239-12.998,4.74-19.316,7.445l-2.339,1.001L13.266,48.374z"/><path fill="#FD0" d="M129.409,63.571l-20.6-51.748c0,0,6.328-0.902,7.301-1.035l-0.305-2.763 c-10.352,1.342-20.649,3.244-30.689,5.669l0.756,2.684c0.672-0.156,6.32-1.453,6.32-1.453l5.955,53.407L62.918,78.17 L25.573,38.392l4.735-2.261l-1.367-2.473c-4.127,1.965-8.097,3.966-11.834,5.965c-2.886,1.544-5.87,3.224-9.226,5.195l1.663,2.239 c0.74-0.431,4.706-2.714,4.706-2.714l25.811,40.384c33.909-14.517,71.166-22.703,110.291-23.103l-5.391,15.117L129.409,63.571z"/><path d="M56.977,102.42c0.491-2.269,0.068-4.593-1.188-6.544L36.731,66.29c-1.606-2.496-4.34-3.985-7.313-3.985l0,0 c-1.665,0-3.288,0.479-4.695,1.385l-1.625-2.521c1.893-1.219,4.078-1.863,6.32-1.863c3.999,0,7.676,2.004,9.836,5.361 L58.31,94.251c1.691,2.625,2.26,5.752,1.6,8.803L56.977,102.42z"/><path d="M54.887,66.991c12.959-4.595,26.357-8.299,39.9-11.063v-3.068c-14.346,2.897-28.535,6.847-42.235,11.778L54.887,66.991z"/><path d="M60.035,72.679c11.334-3.884,22.979-7.092,34.752-9.566v-3.066c-12.578,2.613-25.016,6.06-37.099,10.269L60.035,72.679z"/><path d="M47.999,58.778l-0.678,0.254l2.326,2.344c14.598-5.318,29.763-9.552,45.091-12.575l0.049-0.01v-3.058l-0.629,0.124 C78.465,48.953,62.938,53.299,47.999,58.778z"/><path d="M246.715,103.054c-0.66-3.051-0.09-6.178,1.602-8.803l19.055-29.586c2.16-3.357,5.838-5.361,9.836-5.361 c2.242,0,4.428,0.645,6.32,1.863l-1.625,2.521c-1.408-0.905-3.029-1.385-4.695-1.385l0,0c-2.975,0-5.707,1.489-7.314,3.985 l-19.057,29.587c-1.256,1.951-1.68,4.275-1.188,6.544L246.715,103.054z"/><path d="M258.627,58.778l0.676,0.254l-2.324,2.344c-14.6-5.318-29.764-9.552-45.092-12.575l-0.049-0.01v-3.058l0.629,0.124 C228.161,48.953,243.688,53.299,258.627,58.778z"/><path d="M184.631,41.634c-10.438-1.02-20.945-1.65-31.31-1.731l0,0c-0.002,0-0.006,0-0.008,0s-0.006,0-0.008,0l0,0 c-10.365,0.081-20.873,0.712-31.311,1.731l1.322,2.887c10.002-0.952,19.984-1.539,29.996-1.617 c10.012,0.078,19.994,0.665,29.996,1.617L184.631,41.634z"/><path d="M251.739,66.991c-12.959-4.595-26.357-8.299-39.9-11.063v-3.068c14.346,2.897,28.535,6.847,42.234,11.778L251.739,66.991z"/><path d="M181.737,48.289c-9.725-0.914-19.4-1.476-28.406-1.553v-0.001c-0.006,0-0.012,0-0.018,0s-0.012,0-0.018,0v0.001 c-9.006,0.077-18.682,0.639-28.406,1.553l1.32,2.887c9.287-0.848,18.449-1.365,27.104-1.439 c8.654,0.074,17.816,0.592,27.103,1.439L181.737,48.289z"/><path d="M246.59,72.679c-11.334-3.884-22.979-7.092-34.752-9.566v-3.066c12.578,2.613,25.016,6.06,37.1,10.269L246.59,72.679z"/><path d="M178.862,55.068c-8.846-0.785-17.535-1.268-25.546-1.27l-0.002,0.188l-0.002-0.188c-8.012,0.002-16.701,0.484-25.547,1.27 l1.324,2.896c8.391-0.723,16.568-1.166,24.225-1.166s15.833,0.443,24.224,1.166L178.862,55.068z"/><g><path fill="#E2001A" fill-rule="evenodd" d="M295.043,328.978V106.555H11.58v222.423 c0,29.342,8.896,56.602,24.134,79.229h235.197C286.147,385.58,295.043,358.32,295.043,328.978z" clip-rule="evenodd"/><path d="M271.655,409.607H34.969l-0.416-0.618c-15.944-23.678-24.373-51.345-24.373-80.011V105.155h286.264v223.823 c0,28.665-8.428,56.333-24.371,80.011L271.655,409.607L271.655,409.607z M36.461,406.806h233.702 c15.365-23.076,23.48-49.971,23.48-77.828V107.956H12.98v221.022C12.98,356.836,21.097,383.73,36.461,406.806L36.461,406.806z"/></g><g><path fill="#FD0" fill-rule="evenodd" d="M236.696,267.75H93.242c-1.34,0-2.427-1.086-2.427-2.426l0,0 c0-1.342,1.087-2.428,2.427-2.428h143.454V267.75z" clip-rule="evenodd"/><path d="M235.284,269.15H93.242c-2.11,0-3.827-1.716-3.827-3.826c0-2.111,1.717-3.828,3.827-3.828h144.987v7.653H235.284z M93.242,264.297c-0.566,0-1.027,0.461-1.027,1.028c0,0.565,0.46,1.026,1.027,1.026h142.042v-2.054H93.242L93.242,264.297z"/></g><g><path fill="#FD0" fill-rule="evenodd" d="M155.935,400.179V167.448c0-1.846-1.436-3.342-3.209-3.342 c-1.77,0-3.209,1.496-3.209,3.342v232.731H155.935z" clip-rule="evenodd"/><path d="M157.334,401.58h-9.218V167.448c0-2.615,2.067-4.742,4.609-4.742s4.609,2.127,4.609,4.742V401.58L157.334,401.58z M150.917,398.779h3.618V167.448c0-1.071-0.812-1.942-1.809-1.942s-1.809,0.871-1.809,1.942V398.779L150.917,398.779z"/></g><path fill="none" fill-rule="evenodd" stroke="#000" stroke-width="2.8" d="M185.877,248.508" clip-rule="evenodd"/><g><path fill="#FD0" fill-rule="evenodd" d="M35.714,408.207c25.46,37.811,68.627,62.678,117.598,62.678 c48.97,0,92.138-24.867,117.599-62.678H35.714z" clip-rule="evenodd"/><path d="M153.312,472.285c-47.676,0-92.071-23.662-118.759-63.296l-1.47-2.183h240.458l-1.469,2.183 C245.383,448.623,200.987,472.285,153.312,472.285L153.312,472.285z M38.374,409.607c26.311,37.544,69.076,59.877,114.938,59.877 c45.861,0,88.626-22.333,114.939-59.877H38.374L38.374,409.607z"/></g><g><polygon fill="#FD0" fill-rule="evenodd" points="147.116 255.657 152.702 240.413 158.28 255.656 174.272 252.873 163.862 265.325 174.266 277.778 158.286 274.997 152.7 290.235 147.11 274.996 131.124 277.781 141.536 265.323 131.124 252.873" clip-rule="evenodd"/><path d="M152.7,294.301l-6.502-17.726l-18.6,3.24l12.113-14.493l-12.115-14.485l18.607,3.239l6.498-17.735l6.49,17.734 l18.605-3.238l-12.111,14.487l12.104,14.487l-18.591-3.235L152.7,294.301L152.7,294.301z M148.022,273.416l4.678,12.753 l4.674-12.752l13.369,2.327l-8.705-10.419l8.708-10.418l-13.378,2.329l-4.666-12.752l-4.674,12.753l-13.377-2.329l8.709,10.415 l-8.711,10.423L148.022,273.416L148.022,273.416z"/></g><g><path fill="#FD0" fill-rule="evenodd" d="M159.356,162.971c0,2.596-3.994,4.701-6.631,4.701l0,0 c-2.637,0-6.631-2.105-6.631-4.701l6.631-33.997L159.356,162.971z" clip-rule="evenodd"/><path d="M152.726,169.073c-3.234,0-8.031-2.562-8.031-6.102l0.025-0.268l8.006-41.043l8.031,41.311 C160.757,166.51,155.96,169.073,152.726,169.073L152.726,169.073z M147.499,163.081c0.141,1.533,3.162,3.191,5.227,3.191 s5.086-1.658,5.227-3.191l-5.227-26.793L147.499,163.081L147.499,163.081z"/></g><g><path fill="#FD0" fill-rule="evenodd" d="M56.072,408.207v-24.412c1.813,1.141,5.074,2.072,10.403,0.1 c10.42-3.857,6.218-18.543,5.161-23.633c-1.157-5.574-0.118-15.447-0.118-15.447s-4.858,3.473-6.934,6.934 c-2.836,4.729-2.312,5.365-3.888,11.668c-0.897,3.59-2.989,5.033-4.625,5.611v-51.498c1.813,1.142,5.074,2.072,10.402,0.1 c10.42-3.857,6.218-18.543,5.161-23.633c-1.157-5.574-0.118-15.447-0.118-15.447s-4.858,3.473-6.934,6.934 c-2.836,4.729-2.312,5.365-3.888,11.668c-0.897,3.59-2.988,5.032-4.624,5.611v-48.94c1.813,1.142,5.074,2.072,10.403,0.1 c10.42-3.857,6.218-18.543,5.161-23.633c-1.157-5.574-0.118-15.447-0.118-15.447s-4.858,3.473-6.934,6.934 c-2.836,4.729-2.312,5.365-3.888,11.668c-0.897,3.59-2.989,5.033-4.625,5.612v-29.502c0-2.198-1.782-3.98-3.98-3.98 s-3.98,1.782-3.98,3.98v29.502c-1.636-0.58-3.727-2.022-4.624-5.612c-1.576-6.303-1.052-6.939-3.888-11.668 c-2.075-3.461-6.934-6.934-6.934-6.934s1.039,9.873-0.118,15.447c-1.057,5.09-5.259,19.775,5.161,23.633 c5.328,1.973,8.589,1.042,10.402-0.1v48.941c-1.636-0.579-3.728-2.022-4.625-5.612c-1.576-6.303-1.052-6.939-3.888-11.668 c-2.075-3.461-6.934-6.934-6.934-6.934s1.039,9.873-0.118,15.447c-1.057,5.09-5.259,19.775,5.161,23.633 c5.329,1.973,8.59,1.042,10.403-0.1v51.498c-1.636-0.578-3.727-2.021-4.624-5.611c-1.576-6.303-1.052-6.939-3.888-11.668 c-2.075-3.461-6.934-6.934-6.934-6.934s1.039,9.873-0.118,15.447c-1.057,5.09-5.259,19.775,5.161,23.633 c5.328,1.973,8.589,1.041,10.402-0.1v24.412H56.072z" clip-rule="evenodd"/><path d="M57.473,409.607H46.711v-23.643c-2.64,0.823-5.882,0.578-9.488-0.758c-10.771-3.987-7.659-17.96-6.33-23.927l0.284-1.303 c1.101-5.3,0.107-14.92,0.097-15.017l-0.325-3.096l2.532,1.811c0.208,0.148,5.12,3.684,7.32,7.353 c2.205,3.677,2.519,5.155,3.145,8.101c0.222,1.043,0.488,2.299,0.9,3.947c0.373,1.495,0.998,2.662,1.865,3.49v-46.867 c-2.637,0.825-5.879,0.579-9.489-0.758c-10.771-3.987-7.659-17.96-6.33-23.927l0.284-1.303c1.1-5.294,0.107-14.92,0.097-15.017 l-0.325-3.095l2.532,1.81c0.208,0.148,5.12,3.684,7.32,7.353c2.205,3.677,2.519,5.155,3.145,8.101 c0.222,1.043,0.488,2.299,0.9,3.947c0.373,1.494,0.998,2.661,1.866,3.491v-44.311c-2.637,0.824-5.882,0.578-9.488-0.758 c-10.771-3.987-7.659-17.96-6.33-23.927l0.284-1.303c1.101-5.3,0.107-14.92,0.097-15.017l-0.325-3.096l2.532,1.811 c0.208,0.148,5.12,3.684,7.32,7.353c2.205,3.677,2.519,5.155,3.145,8.101c0.222,1.043,0.488,2.299,0.9,3.947 c0.373,1.493,0.998,2.66,1.865,3.489v-27.039c0-2.967,2.414-5.381,5.381-5.381s5.381,2.414,5.381,5.381v27.041 c0.868-0.829,1.493-1.997,1.866-3.491c0.412-1.648,0.679-2.904,0.9-3.947c0.626-2.945,0.939-4.424,3.146-8.101 c2.199-3.669,7.111-7.204,7.319-7.353l2.532-1.81l-0.325,3.095c-0.011,0.097-1.003,9.723,0.097,15.017l0.284,1.303 c1.329,5.967,4.44,19.939-6.33,23.927c-3.61,1.335-6.854,1.582-9.489,0.758v44.309c0.867-0.829,1.492-1.995,1.865-3.489 c0.412-1.648,0.679-2.904,0.9-3.947c0.626-2.945,0.939-4.424,3.146-8.101c2.199-3.669,7.111-7.204,7.319-7.353l2.532-1.81 l-0.325,3.095c-0.011,0.097-1.003,9.723,0.097,15.017l0.284,1.303c1.329,5.967,4.44,19.939-6.33,23.927 c-3.606,1.336-6.852,1.584-9.488,0.758v46.868c0.868-0.829,1.493-1.996,1.866-3.491c0.412-1.648,0.679-2.904,0.9-3.947 c0.626-2.945,0.939-4.424,3.146-8.101c2.199-3.669,7.111-7.204,7.319-7.353l2.532-1.81l-0.325,3.095 c-0.011,0.097-1.003,9.723,0.097,15.017l0.284,1.303c1.329,5.967,4.44,19.939-6.33,23.927c-3.608,1.336-6.852,1.578-9.489,0.758 V409.607L57.473,409.607z M49.512,406.806h5.16V381.26l2.146,1.349c2.188,1.377,5.381,1.377,9.172-0.027 c8.479-3.14,5.839-14.995,4.569-20.692l-0.293-1.344c-0.773-3.726-0.617-9.157-0.402-12.606 c-1.417,1.239-3.104,2.904-4.077,4.528c-1.965,3.276-2.194,4.356-2.808,7.243c-0.228,1.068-0.501,2.355-0.923,4.045 c-1.053,4.208-3.581,5.907-5.517,6.592l-1.867,0.659v-56.013l2.146,1.351c2.186,1.376,5.381,1.375,9.17-0.028 c8.479-3.14,5.839-14.995,4.569-20.692l-0.293-1.344c-0.773-3.726-0.617-9.157-0.402-12.606 c-1.417,1.239-3.104,2.904-4.077,4.528c-1.966,3.276-2.194,4.356-2.808,7.243c-0.228,1.068-0.501,2.355-0.923,4.045 c-1.052,4.206-3.58,5.906-5.516,6.591l-1.867,0.661v-53.456l2.146,1.351c2.185,1.376,5.379,1.375,9.171-0.028 c8.479-3.14,5.839-14.995,4.569-20.692l-0.293-1.344c-0.773-3.726-0.617-9.157-0.402-12.606 c-1.417,1.239-3.104,2.904-4.077,4.528c-1.965,3.276-2.194,4.356-2.808,7.243c-0.228,1.068-0.501,2.355-0.923,4.045 c-1.052,4.207-3.58,5.907-5.517,6.592l-1.867,0.661v-31.482c0-1.423-1.157-2.58-2.58-2.58s-2.58,1.157-2.58,2.58v31.483 l-1.868-0.662c-1.936-0.687-4.463-2.387-5.515-6.592c-0.422-1.689-0.695-2.977-0.923-4.045c-0.613-2.887-0.842-3.967-2.807-7.243 c-0.975-1.624-2.661-3.289-4.078-4.528c0.215,3.449,0.371,8.881-0.402,12.606l-0.293,1.344c-1.27,5.697-3.91,17.553,4.569,20.692 c3.791,1.403,6.984,1.404,9.17,0.028l2.146-1.351v53.457l-1.867-0.661c-1.937-0.685-4.465-2.385-5.517-6.592 c-0.422-1.689-0.695-2.977-0.923-4.045c-0.613-2.887-0.843-3.967-2.807-7.243c-0.977-1.628-2.662-3.292-4.079-4.53 c0.216,3.45,0.372,8.882-0.401,12.608l-0.293,1.344c-1.27,5.697-3.91,17.553,4.569,20.692c3.792,1.403,6.985,1.404,9.171,0.028 l2.146-1.351v56.013l-1.867-0.659c-1.936-0.685-4.463-2.383-5.516-6.592c-0.422-1.689-0.695-2.977-0.923-4.045 c-0.613-2.887-0.842-3.967-2.807-7.243c-0.975-1.624-2.661-3.289-4.078-4.528c0.215,3.449,0.371,8.881-0.402,12.606l-0.293,1.344 c-1.27,5.697-3.91,17.553,4.569,20.692c3.787,1.403,6.982,1.403,9.171,0.027l2.146-1.349V406.806L49.512,406.806z"/></g><path d="M156.274,102.943V61.625c39.125,0.399,76.38,8.586,110.291,23.103l-11.643,18.214L156.274,102.943z"/><g><g><path fill="#FD0" fill-rule="evenodd" d="M80.299,125.597c0,0,24.153,14.796,24.153,44.723 c0,17.294,0,220.164,0,220.164l11.441,9.932h6.779c0,0,0-198.514,0-226.281c0-42.164-41.104-51.08-41.104-51.08L80.299,125.597z" clip-rule="evenodd"/><path d="M124.073,401.816h-8.703l-12.318-10.693V170.32c0-28.81-23.249-43.385-23.484-43.529l-1.095-0.67l2.33-4.665l1.063,0.23 c0.422,0.092,42.207,9.65,42.207,52.448V401.816L124.073,401.816z M116.417,399.015h4.855V174.134 c0-37.289-32.503-47.747-38.95-49.454l-0.223,0.445c4.759,3.371,23.753,18.504,23.753,45.194v219.525L116.417,399.015 L116.417,399.015z"/></g><path d="M117.372,400.416h-2.801c0,0,0.016-210.999,0-228.865c-0.027-32.008-33.093-45.903-33.427-46.04l1.061-2.592 c0.352,0.144,35.138,14.765,35.167,48.63C117.388,189.415,117.372,400.416,117.372,400.416L117.372,400.416z"/><g><circle cx="78.198" cy="123.097" r="2.917" fill="#FD0" fill-rule="evenodd" clip-rule="evenodd"/><path d="M78.197,127.415c-2.381,0-4.317-1.937-4.317-4.317s1.937-4.318,4.317-4.318s4.318,1.938,4.318,4.318 S80.578,127.415,78.197,127.415L78.197,127.415z M78.197,121.58c-0.837,0-1.517,0.681-1.517,1.518s0.68,1.517,1.517,1.517 s1.518-0.68,1.518-1.517S79.034,121.58,78.197,121.58L78.197,121.58z"/></g><g><polyline fill="#FD0" fill-rule="evenodd" points="94.451 248.497 115.972 248.497 115.972 237.671 104.452 237.671 93.593 248.495 104.452 259.317 104.452 248.719" clip-rule="evenodd"/><path d="M105.853,262.689l-14.243-14.194l12.265-12.224h13.498v13.626h-11.52V262.689L105.853,262.689z M96.982,249.897 l6.069,6.048v-6.048H96.982L96.982,249.897z M96.979,247.096h17.593v-8.024h-9.541L96.979,247.096L96.979,247.096z"/></g></g><g><path fill="#FD0" d="M71.268,181.897c4.555-2.66,6.113-8.5,3.473-13.076c-2.641-4.572-8.477-6.145-13.063-3.531 c-0.027-5.273-4.305-9.541-9.586-9.541c-5.282,0-9.56,4.268-9.589,9.541c-4.584-2.609-10.418-1.039-13.057,3.533 c-2.639,4.574-1.086,10.412,3.469,13.074c-4.551,2.664-6.107,8.502-3.469,13.074c2.641,4.572,8.473,6.146,13.057,3.535 c0.027,5.273,4.307,9.541,9.589,9.541c5.281,0,9.559-4.27,9.586-9.543c4.583,2.613,10.419,1.043,13.063-3.533 C77.381,190.399,75.822,184.557,71.268,181.897z"/><path d="M52.091,209.448c-5.324,0-9.791-3.826-10.783-8.873c-1.141,0.39-2.342,0.592-3.55,0.592 c-3.917,0-7.567-2.105-9.524-5.495c-2.659-4.607-1.579-10.389,2.293-13.773c-3.873-3.383-4.953-9.164-2.294-13.774 c1.956-3.389,5.605-5.494,9.523-5.494c1.209,0,2.41,0.202,3.552,0.593c0.994-5.047,5.461-8.874,10.783-8.874 s9.788,3.826,10.78,8.873c1.143-0.392,2.346-0.594,3.556-0.594c3.919,0,7.569,2.104,9.525,5.493 c2.661,4.611,1.58,10.394-2.295,13.776c3.877,3.384,4.958,9.164,2.295,13.774c-1.959,3.39-5.609,5.496-9.526,5.496 c0,0,0,0-0.001,0c-1.209,0-2.411-0.203-3.554-0.595C61.879,205.621,57.413,209.448,52.091,209.448L52.091,209.448z M43.89,196.105l0.013,2.395c0.022,4.492,3.696,8.147,8.188,8.147c4.49,0,8.163-3.656,8.186-8.149l0.013-2.396l2.081,1.187 c1.238,0.705,2.641,1.078,4.056,1.078c2.921,0.001,5.642-1.569,7.103-4.096c2.246-3.89,0.915-8.897-2.967-11.165l-2.07-1.209 l2.07-1.209c3.881-2.267,5.212-7.276,2.966-11.167c-1.458-2.525-4.179-4.094-7.101-4.094c-1.415,0-2.818,0.373-4.057,1.079 l-2.081,1.185l-0.013-2.395c-0.022-4.492-3.695-8.147-8.186-8.147s-8.164,3.655-8.188,8.148l-0.014,2.393l-2.079-1.184 c-1.238-0.705-2.64-1.077-4.054-1.077c-2.921,0-5.641,1.568-7.098,4.094c-2.244,3.89-0.915,8.898,2.962,11.165l2.066,1.208 l-2.065,1.209c-3.877,2.271-5.207,7.279-2.963,11.166c1.459,2.526,4.18,4.096,7.1,4.096c1.413,0,2.814-0.372,4.051-1.077 L43.89,196.105L43.89,196.105z"/></g><g><circle cx="52.092" cy="181.898" r="8.343" fill="#FD0" fill-rule="evenodd" clip-rule="evenodd"/><path d="M52.092,191.641c-5.372,0-9.743-4.371-9.743-9.743s4.371-9.743,9.743-9.743s9.743,4.371,9.743,9.743 S57.464,191.641,52.092,191.641L52.092,191.641z M52.092,174.956c-3.828,0-6.942,3.114-6.942,6.942s3.114,6.942,6.942,6.942 s6.942-3.114,6.942-6.942S55.92,174.956,52.092,174.956L52.092,174.956z"/></g><g><path fill="#FD0" fill-rule="evenodd" d="M249.391,408.207v-24.412c-1.812,1.141-5.074,2.072-10.402,0.1 c-10.422-3.857-6.219-18.543-5.162-23.633c1.158-5.574,0.119-15.447,0.119-15.447s4.857,3.473,6.934,6.934 c2.836,4.729,2.311,5.365,3.887,11.668c0.898,3.59,2.988,5.033,4.625,5.611v-51.498c-1.812,1.142-5.074,2.072-10.402,0.1 c-10.42-3.857-6.219-18.543-5.16-23.633c1.156-5.574,0.117-15.447,0.117-15.447s4.859,3.473,6.934,6.934 c2.836,4.729,2.312,5.365,3.887,11.668c0.898,3.59,2.988,5.032,4.625,5.611v-48.94c-1.812,1.142-5.074,2.072-10.402,0.1 c-10.422-3.857-6.219-18.543-5.162-23.633c1.158-5.574,0.119-15.447,0.119-15.447s4.857,3.473,6.934,6.934 c2.836,4.729,2.311,5.365,3.887,11.668c0.898,3.59,2.988,5.033,4.625,5.612v-29.502c0-2.198,1.781-3.98,3.98-3.98 s3.98,1.782,3.98,3.98v29.502c1.637-0.58,3.727-2.022,4.625-5.612c1.574-6.303,1.051-6.939,3.887-11.668 c2.074-3.461,6.934-6.934,6.934-6.934s-1.039,9.873,0.117,15.447c1.059,5.09,5.258,19.775-5.16,23.633 c-5.328,1.973-8.59,1.042-10.402-0.1v48.941c1.637-0.579,3.727-2.022,4.625-5.612c1.574-6.303,1.051-6.939,3.887-11.668 c2.074-3.461,6.934-6.934,6.934-6.934s-1.039,9.873,0.117,15.447c1.059,5.09,5.262,19.775-5.16,23.633 c-5.328,1.973-8.59,1.042-10.402-0.1v51.498c1.637-0.578,3.727-2.021,4.625-5.611c1.574-6.303,1.051-6.939,3.887-11.668 c2.074-3.461,6.934-6.934,6.934-6.934s-1.039,9.873,0.117,15.447c1.059,5.09,5.258,19.775-5.16,23.633 c-5.328,1.973-8.59,1.041-10.402-0.1v24.412H249.391z" clip-rule="evenodd"/><path d="M258.752,409.607h-10.762v-23.643c-2.635,0.821-5.881,0.578-9.488-0.758c-10.771-3.987-7.66-17.959-6.332-23.926 l0.285-1.304c1.1-5.294,0.107-14.92,0.098-15.017l-0.324-3.095l2.531,1.81c0.207,0.148,5.119,3.684,7.32,7.353 c2.205,3.676,2.518,5.153,3.143,8.099c0.223,1.043,0.488,2.3,0.9,3.949c0.375,1.495,1,2.662,1.867,3.491v-46.868 c-2.635,0.825-5.881,0.579-9.488-0.758c-10.775-3.988-7.658-17.965-6.328-23.934l0.283-1.297 c1.1-5.299,0.105-14.919,0.096-15.016l-0.326-3.095l2.533,1.81c0.207,0.148,5.121,3.684,7.32,7.353 c2.205,3.679,2.52,5.158,3.146,8.106c0.221,1.041,0.486,2.296,0.896,3.942c0.375,1.493,1,2.66,1.867,3.489v-44.31 c-2.635,0.825-5.881,0.578-9.488-0.758c-10.771-3.987-7.66-17.959-6.332-23.926l0.285-1.304c1.102-5.3,0.107-14.92,0.098-15.017 l-0.326-3.096l2.533,1.811c0.207,0.148,5.119,3.684,7.32,7.353c2.205,3.676,2.518,5.153,3.143,8.099 c0.223,1.043,0.488,2.3,0.9,3.949c0.375,1.495,1,2.662,1.867,3.491v-27.041c0-2.967,2.414-5.381,5.381-5.381 s5.381,2.414,5.381,5.381v27.04c0.867-0.83,1.492-1.996,1.867-3.49c0.41-1.646,0.676-2.9,0.896-3.941 c0.627-2.948,0.941-4.428,3.146-8.106c2.199-3.669,7.113-7.204,7.32-7.353l2.531-1.81l-0.324,3.095 c-0.01,0.097-1.002,9.723,0.096,15.017l0.283,1.295c1.33,5.968,4.445,19.945-6.328,23.935c-3.605,1.337-6.852,1.583-9.488,0.758 v44.311c0.867-0.829,1.492-1.997,1.867-3.491c0.41-1.646,0.676-2.9,0.896-3.941c0.627-2.948,0.941-4.428,3.146-8.106 c2.199-3.669,7.113-7.204,7.32-7.353l2.531-1.81l-0.324,3.095c-0.01,0.097-1.002,9.723,0.096,15.017l0.283,1.298 c1.332,5.968,4.447,19.943-6.328,23.932c-3.605,1.335-6.852,1.583-9.488,0.758v46.868c0.867-0.829,1.492-1.996,1.867-3.491 c0.41-1.646,0.676-2.9,0.896-3.941c0.627-2.948,0.941-4.428,3.146-8.106c2.199-3.669,7.113-7.204,7.32-7.353l2.531-1.81 l-0.324,3.095c-0.01,0.097-1.002,9.723,0.096,15.017l0.283,1.295c1.33,5.968,4.445,19.945-6.328,23.935 c-3.607,1.337-6.852,1.581-9.488,0.758V409.607L258.752,409.607z M250.792,406.806h5.16v-25.547l2.146,1.351 c2.184,1.374,5.379,1.376,9.17-0.028c8.482-3.141,5.838-15.001,4.566-20.701l-0.291-1.334c-0.773-3.727-0.615-9.158-0.4-12.607 c-1.418,1.239-3.105,2.903-4.078,4.528c-1.967,3.278-2.195,4.359-2.809,7.248c-0.227,1.067-0.5,2.353-0.922,4.039 c-1.053,4.211-3.58,5.909-5.516,6.593l-1.867,0.659v-56.014l2.146,1.352c2.186,1.376,5.379,1.375,9.17-0.028 c8.482-3.141,5.84-14.998,4.568-20.697l-0.293-1.338c-0.773-3.727-0.615-9.158-0.4-12.607c-1.418,1.239-3.105,2.903-4.078,4.528 c-1.967,3.278-2.195,4.359-2.809,7.248c-0.227,1.067-0.5,2.353-0.922,4.039c-1.053,4.209-3.58,5.908-5.516,6.593l-1.867,0.661 v-53.458l2.146,1.352c2.186,1.376,5.379,1.375,9.17-0.028c8.482-3.141,5.838-15.001,4.566-20.701l-0.291-1.334 c-0.773-3.727-0.615-9.158-0.4-12.607c-1.418,1.239-3.105,2.903-4.078,4.528c-1.967,3.278-2.195,4.359-2.809,7.248 c-0.227,1.067-0.5,2.353-0.922,4.039c-1.053,4.207-3.58,5.907-5.516,6.593l-1.867,0.662v-31.483c0-1.423-1.156-2.58-2.58-2.58 s-2.58,1.157-2.58,2.58v31.482l-1.867-0.661c-1.936-0.685-4.463-2.384-5.516-6.592c-0.424-1.69-0.697-2.979-0.924-4.048 c-0.613-2.886-0.842-3.965-2.807-7.24c-0.977-1.628-2.662-3.291-4.078-4.53c0.215,3.45,0.371,8.882-0.402,12.609l-0.293,1.344 c-1.27,5.697-3.91,17.552,4.57,20.691c3.789,1.403,6.986,1.404,9.17,0.028l2.146-1.352v53.457l-1.867-0.661 c-1.936-0.685-4.463-2.384-5.516-6.591c-0.422-1.688-0.695-2.973-0.922-4.04c-0.613-2.889-0.842-3.97-2.809-7.248 c-0.973-1.625-2.66-3.289-4.078-4.528c0.215,3.449,0.373,8.881-0.4,12.606l-0.293,1.337c-1.27,5.699-3.914,17.559,4.568,20.699 c3.789,1.403,6.986,1.404,9.17,0.028l2.146-1.352v56.014l-1.867-0.659c-1.936-0.684-4.463-2.382-5.516-6.592 c-0.424-1.69-0.697-2.979-0.924-4.048c-0.613-2.886-0.842-3.965-2.807-7.24c-0.977-1.628-2.662-3.291-4.078-4.53 c0.215,3.45,0.371,8.883-0.402,12.609l-0.293,1.344c-1.27,5.697-3.91,17.552,4.57,20.691c3.797,1.405,6.99,1.402,9.17,0.028 l2.146-1.351V406.806L250.792,406.806z"/></g><g><g><path fill="#FD0" fill-rule="evenodd" d="M225.165,125.597c0,0-24.152,14.796-24.152,44.723 c0,17.294,0,220.164,0,220.164l-11.441,9.932h-6.781c0,0,0-198.514,0-226.281c0-42.164,41.105-51.08,41.105-51.08 L225.165,125.597z" clip-rule="evenodd"/><path d="M190.094,401.816h-8.705V174.134c0-42.798,41.787-52.356,42.209-52.448l1.062-0.23l2.328,4.663l-1.092,0.672 c-0.234,0.145-23.484,14.774-23.484,43.529v220.803L190.094,401.816L190.094,401.816z M184.19,399.015h4.857l10.564-9.17V170.32 c0-26.692,18.996-41.824,23.752-45.194l-0.223-0.445c-6.447,1.707-38.951,12.165-38.951,49.454V399.015L184.19,399.015z"/></g><path d="M188.092,400.416c0,0-0.016-211.001,0-228.867c0.027-33.865,34.816-48.486,35.168-48.63l1.061,2.592 c-0.334,0.137-33.402,14.074-33.428,46.04c-0.016,17.866,0,228.865,0,228.865H188.092L188.092,400.416z"/><g><circle cx="227.266" cy="123.097" r="2.916" fill="#FD0" fill-rule="evenodd" clip-rule="evenodd"/><path d="M227.266,127.415c-2.379,0-4.316-1.937-4.316-4.317s1.938-4.318,4.316-4.318s4.316,1.938,4.316,4.318 S229.645,127.415,227.266,127.415L227.266,127.415z M227.266,121.58c-0.836,0-1.516,0.681-1.516,1.518s0.68,1.517,1.516,1.517 s1.516-0.68,1.516-1.517S228.102,121.58,227.266,121.58L227.266,121.58z"/></g><g><polyline fill="#FD0" fill-rule="evenodd" points="211.012 248.497 189.493 248.497 189.493 237.671 201.012 237.671 211.872 248.495 201.012 259.317 201.012 248.719" clip-rule="evenodd"/><path d="M199.612,262.689v-12.792h-11.52v-13.626h13.498l12.264,12.224L199.612,262.689L199.612,262.689z M202.413,249.897 v6.048l6.068-6.048H202.413L202.413,249.897z M190.893,247.096h17.592l-8.051-8.024h-9.541V247.096L190.893,247.096z"/></g></g><g><path fill="#FD0" d="M234.196,181.897c-4.555-2.66-6.113-8.5-3.473-13.076c2.641-4.572,8.477-6.145,13.062-3.531 c0.027-5.273,4.305-9.541,9.586-9.541s9.559,4.268,9.59,9.541c4.582-2.609,10.418-1.039,13.055,3.533 c2.641,4.574,1.086,10.412-3.469,13.074c4.551,2.664,6.109,8.502,3.469,13.074s-8.473,6.146-13.055,3.535 c-0.027,5.273-4.309,9.541-9.59,9.541s-9.559-4.27-9.586-9.543c-4.582,2.613-10.418,1.043-13.062-3.533 C228.083,190.399,229.641,184.557,234.196,181.897z"/><path d="M253.372,209.448c-5.322,0-9.789-3.826-10.781-8.875c-1.141,0.392-2.344,0.595-3.553,0.595 c-3.918,0-7.568-2.106-9.527-5.496c-2.662-4.61-1.58-10.391,2.297-13.774c-3.877-3.383-4.957-9.165-2.297-13.776 c1.957-3.389,5.607-5.493,9.525-5.493c1.211,0,2.412,0.202,3.555,0.594c0.992-5.047,5.459-8.873,10.781-8.873 c5.32,0,9.789,3.826,10.783,8.874c1.141-0.391,2.342-0.593,3.551-0.593c3.92,0,7.568,2.105,9.523,5.494 c2.66,4.609,1.58,10.391-2.295,13.774c3.875,3.386,4.955,9.167,2.295,13.773c-1.959,3.39-5.607,5.495-9.525,5.495 c-1.207,0-2.408-0.201-3.547-0.592C263.163,205.622,258.696,209.448,253.372,209.448L253.372,209.448z M245.172,196.101 l0.014,2.396c0.023,4.493,3.695,8.149,8.186,8.149c4.492,0,8.166-3.655,8.189-8.147l0.014-2.396l2.08,1.186 c1.236,0.705,2.637,1.077,4.049,1.077c2.92,0,5.641-1.569,7.1-4.096c2.244-3.887,0.916-8.896-2.963-11.166l-2.066-1.209 l2.066-1.208c3.879-2.267,5.209-7.275,2.963-11.165c-1.455-2.525-4.176-4.094-7.098-4.094c-1.414,0-2.814,0.372-4.051,1.077 l-2.08,1.184l-0.014-2.393c-0.025-4.493-3.699-8.148-8.189-8.148s-8.162,3.655-8.186,8.147l-0.014,2.396l-2.08-1.186 c-1.238-0.706-2.641-1.079-4.057-1.079c-2.922,0-5.643,1.568-7.1,4.094c-2.246,3.891-0.916,8.9,2.967,11.167l2.068,1.209 l-2.068,1.209c-3.883,2.268-5.213,7.275-2.967,11.165c1.459,2.526,4.182,4.096,7.102,4.096c1.414,0,2.816-0.373,4.055-1.078 L245.172,196.101L245.172,196.101z"/></g><g><circle cx="253.372" cy="181.898" r="8.344" fill="#FD0" fill-rule="evenodd" clip-rule="evenodd"/><path d="M253.372,191.641c-5.373,0-9.744-4.371-9.744-9.743s4.371-9.743,9.744-9.743s9.744,4.371,9.744,9.743 S258.745,191.641,253.372,191.641L253.372,191.641z M253.372,174.956c-3.828,0-6.943,3.114-6.943,6.942s3.115,6.942,6.943,6.942 s6.943-3.114,6.943-6.942S257.2,174.956,253.372,174.956L253.372,174.956z"/></g><g><g><path fill="#FD0" fill-rule="evenodd" d="M162.44,163.325c0.424-1.978,0.033-3.938-0.971-5.612h-17.539 c-1.002,1.674-1.393,3.635-0.967,5.612c0.51,2.378,3.555,4.302,6.053,5.513h7.363 C158.882,167.626,161.929,165.703,162.44,163.325z" clip-rule="evenodd"/><path d="M156.7,170.238h-8.006l-0.289-0.141c-4.014-1.946-6.307-4.126-6.811-6.479c-0.482-2.242-0.08-4.596,1.135-6.624 l0.408-0.682h19.125l0.408,0.681c1.215,2.026,1.619,4.38,1.139,6.625c-0.508,2.355-2.801,4.535-6.82,6.479L156.7,170.238 L156.7,170.238z M149.343,167.437h6.711c2.902-1.447,4.725-3.046,5.018-4.407c0.285-1.326,0.131-2.667-0.443-3.917h-15.855 c-0.572,1.251-0.725,2.591-0.439,3.917C144.624,164.391,146.444,165.989,149.343,167.437L149.343,167.437z"/></g><g><polygon fill="#FD0" fill-rule="evenodd" points="142.007 163.391 134.128 156.516 171.325 156.516 163.446 163.391" clip-rule="evenodd"/><path d="M163.972,164.792h-22.49l-11.088-9.676h44.666L163.972,164.792L163.972,164.792z M142.532,161.991h20.389l4.669-4.074 h-29.728L142.532,161.991L142.532,161.991z"/></g></g><g><path fill="#FD0" fill-rule="evenodd" d="M90.641,260.6c1.848,0,3.348,2.846,3.348,4.725l0,0 c0,1.878-1.5,4.724-3.348,4.724l-24.224-4.724L90.641,260.6z" clip-rule="evenodd"/><path d="M90.641,271.449l-0.268-0.026l-31.27-6.098l31.537-6.125c2.854,0,4.748,3.687,4.748,6.125 C95.389,267.762,93.495,271.449,90.641,271.449L90.641,271.449z M73.73,265.325l17.001,3.314 c0.743-0.139,1.856-1.906,1.856-3.314c0-1.409-1.113-3.177-1.856-3.315L73.73,265.325L73.73,265.325z"/></g><g><g><path fill="#FD0" fill-rule="evenodd" d="M90.982,257.022c-1.689-0.36-3.364-0.027-4.796,0.83v14.988 c1.432,0.857,3.106,1.19,4.796,0.827c2.033-0.436,3.679-3.038,4.713-5.173v-6.293C94.661,260.063,93.016,257.46,90.982,257.022z" clip-rule="evenodd"/><path d="M89.622,275.313c-1.457,0-2.911-0.41-4.206-1.186l-0.729-0.438v-16.688l0.729-0.438c1.79-1.073,3.895-1.434,5.879-1.01 c2.114,0.456,4.048,2.472,5.751,5.993l0.149,0.31v6.98l-0.15,0.311c-1.705,3.52-3.639,5.533-5.748,5.985 C90.746,275.252,90.182,275.313,89.622,275.313L89.622,275.313z M87.687,271.92c0.957,0.395,1.988,0.491,2.98,0.28 c1.065-0.228,2.343-1.7,3.528-4.056v-5.594c-1.185-2.358-2.462-3.833-3.529-4.063c-0.984-0.209-2.021-0.111-2.979,0.284V271.92 L87.687,271.92z"/></g><g><polygon fill="#FD0" fill-rule="evenodd" points="91.04 274.196 85.164 281.218 85.164 249.429 91.04 256.455" clip-rule="evenodd"/><path d="M83.664,285.348v-40.051l8.876,10.612v18.831L83.664,285.348L83.664,285.348z M86.664,253.561v23.527l2.876-3.438V257 L86.664,253.561L86.664,253.561z"/></g></g><path d="M113.497,77.972c-3.596,0-6.703-2.451-7.391-5.828l-5.562-27.427c-0.799-3.968,1.926-7.88,6.072-8.722 c0.529-0.107,1.068-0.162,1.604-0.162c3.598,0,6.705,2.452,7.391,5.831l5.561,27.425c0.393,1.938-0.033,3.916-1.199,5.57 c-1.146,1.628-2.877,2.747-4.873,3.151C114.569,77.918,114.03,77.972,113.497,77.972L113.497,77.972z M108.22,38.833 c-0.332,0-0.668,0.033-1.006,0.102c-2.529,0.514-4.201,2.841-3.729,5.188l5.562,27.424c0.463,2.284,2.887,3.844,5.455,3.324 c1.24-0.252,2.312-0.941,3.018-1.94c0.686-0.973,0.938-2.125,0.709-3.245l-5.561-27.426 C112.267,40.275,110.396,38.833,108.22,38.833L108.22,38.833z"/><path d="M193.387,76.366L193.387,76.366c-0.533,0-1.072-0.054-1.6-0.161c-1.998-0.404-3.729-1.523-4.875-3.151 c-1.166-1.654-1.592-3.633-1.199-5.571l5.561-27.424c0.686-3.379,3.793-5.831,7.391-5.831c0.535,0,1.074,0.055,1.604,0.162 c4.146,0.842,6.871,4.754,6.072,8.72l-5.562,27.428C200.09,73.915,196.983,76.366,193.387,76.366L193.387,76.366z M198.665,37.227 c-2.176,0-4.047,1.441-4.449,3.427l-5.561,27.425c-0.229,1.121,0.023,2.273,0.709,3.246c0.705,0.999,1.777,1.688,3.02,1.94 c2.547,0.518,4.99-1.039,5.453-3.325l5.562-27.425c0.473-2.346-1.199-4.673-3.729-5.187 C199.333,37.26,198.997,37.227,198.665,37.227L198.665,37.227z"/><path d="M150.353,102.943V61.625c-39.125,0.399-76.382,8.586-110.291,23.103l11.642,18.214L150.353,102.943z"/><g><polygon fill="#FD0" fill-rule="evenodd" points="101.638 82.501 95.822 83.693 93.767 75.322 99.63 74.095" clip-rule="evenodd"/><polygon fill="#FD0" fill-rule="evenodd" points="91.932 84.534 86.223 85.916 83.79 77.671 89.546 76.25" clip-rule="evenodd"/><polygon fill="#FD0" fill-rule="evenodd" points="82.402 86.886 76.811 88.457 74.015 80.351 79.65 78.74" clip-rule="evenodd"/><polygon fill="#FD0" fill-rule="evenodd" points="73.074 89.55 67.608 91.301 64.459 83.349 69.968 81.556" clip-rule="evenodd"/><polygon fill="#FD0" fill-rule="evenodd" points="63.962 92.516 58.635 94.441 55.149 86.657 60.512 84.686" clip-rule="evenodd"/><polygon fill="#FD0" fill-rule="evenodd" points="55.083 95.769 49.906 97.86 46.1 90.254 51.309 88.118" clip-rule="evenodd"/><polygon fill="#FD0" fill-rule="evenodd" points="151.056 77.736 145.011 77.86 145.011 69.124 151.124 68.989" clip-rule="evenodd"/><polygon fill="#FD0" fill-rule="evenodd" points="140.937 77.987 134.915 78.322 134.503 69.622 140.589 69.268" clip-rule="evenodd"/><polygon fill="#FD0" fill-rule="evenodd" points="130.864 78.59 124.89 79.137 124.073 70.491 130.11 69.924" clip-rule="evenodd"/><polygon fill="#FD0" fill-rule="evenodd" points="120.87 79.549 114.948 80.301 113.731 71.726 119.71 70.947" clip-rule="evenodd"/><polygon fill="#FD0" fill-rule="evenodd" points="110.976 80.851 105.128 81.809 103.517 73.324 109.419 72.336" clip-rule="evenodd"/><polygon fill="#FD0" fill-rule="evenodd" points="204.913 82.501 210.735 83.693 212.792 75.322 206.92 74.095" clip-rule="evenodd"/><polygon fill="#FD0" fill-rule="evenodd" points="214.629 84.534 220.346 85.916 222.784 77.671 217.018 76.25" clip-rule="evenodd"/><polygon fill="#FD0" fill-rule="evenodd" points="224.172 86.886 229.772 88.457 232.571 80.351 226.926 78.74" clip-rule="evenodd"/><polygon fill="#FD0" fill-rule="evenodd" points="233.514 89.55 238.985 91.301 242.139 83.349 236.622 81.556" clip-rule="evenodd"/><polygon fill="#FD0" fill-rule="evenodd" points="242.635 92.516 247.971 94.441 251.459 86.657 246.092 84.686" clip-rule="evenodd"/><polygon fill="#FD0" fill-rule="evenodd" points="251.53 95.769 256.711 97.86 260.522 90.254 255.307 88.118" clip-rule="evenodd"/><polygon fill="#FD0" fill-rule="evenodd" points="155.427 77.736 161.481 77.86 161.481 69.124 155.358 68.989" clip-rule="evenodd"/><polygon fill="#FD0" fill-rule="evenodd" points="165.561 77.987 171.588 78.322 172 69.622 165.909 69.268" clip-rule="evenodd"/><polygon fill="#FD0" fill-rule="evenodd" points="175.647 78.59 181.629 79.137 182.448 70.491 176.399 69.924" clip-rule="evenodd"/><polygon fill="#FD0" fill-rule="evenodd" points="185.653 79.549 191.581 80.301 192.801 71.726 186.815 70.947" clip-rule="evenodd"/><polygon fill="#FD0" fill-rule="evenodd" points="195.561 80.851 201.418 81.809 203.028 73.324 197.12 72.336" clip-rule="evenodd"/></g></g></switch></svg>