<svg xmlns="http://www.w3.org/2000/svg" xmlns:svg="http://www.w3.org/2000/svg" id="svg2" width="400" height="500" x="0" y="0" enable-background="new 30.5 31.5 412 533" version="1.1" viewBox="30.5 31.5 400 500" xml:space="preserve"><metadata id="metadata4"/><path id="path8" fill="#0085ca" d="M230.44 531.14C156.12 477.22 105.18 409.12 74.7 322.98 47.06 244.88 35.97 150.23 40.79 33.63l0.02-0.46 379.82 0 0.02 0.46c4.81 116.6-6.28 211.24-33.91 289.35C356.26 409.12 305.32 477.22 231 531.14l-0.28 0.2-0.28-0.2z"/><path id="path4219" d="M353.14 285.81 398 285.5c8.4-30.22 14.23-62.86 18-96.23C351.55 170.57 301.6 165.5 230.5 165.5 159.4 165.5 109.45 170.57 45 189.27 48.77 222.64 54.6 255.28 63 285.5l44.86 0.31c25.61-49.22 70.01-70.52 122.64-70.52 52.63 0 97.03 21.3 122.64 70.52z" style="fill-rule:evenodd;fill:#ffe000"/><path id="path10" d="M419.96 33.21C429.03 252.66 383.7 419.16 230.5 530.31 77.31 419.16 31.99 252.66 41.06 33.21l189.45 0 189.45 0m0.92-0.95-0.92 0-189.45 0-189.45 0-0.92 0-0.04 0.92c-4.82 116.66 6.28 211.36 33.93 289.52 30.51 86.24 81.51 154.41 155.91 208.39l0.56 0.41 0.56-0.41C305.46 477.11 356.46 408.94 386.97 322.7 414.62 244.54 425.72 149.84 420.9 33.18l-0.04-0.92 0 0z"/><path id="path4221" d="m63 285.5 44.86 0.31c25.61-49.22 70.01-70.52 122.64-70.52 52.63 0 97.03 21.3 122.64 70.52L398 285.5m18-96.23C351.55 170.57 301.6 165.5 230.5 165.5c-71.1 0-121.05 5.07-185.5 23.77" style="fill:none;stroke:#000"/></svg>