<svg xmlns="http://www.w3.org/2000/svg" xmlns:svg="http://www.w3.org/2000/svg" id="svg2" width="420" height="500" x="0" y="0" enable-background="new 30.5 31.5 412 533" version="1.1" viewBox="30.5 31.5 420 500" xml:space="preserve"><metadata id="metadata4"/><path id="path4218" d="m 41,32.7 c -2.09,102.46 3.38,187.49 43.93,296.59 28.05,75.48 74.21,144.77 155.57,201.59 C 321.86,474.06 368.02,404.77 396.07,329.29 436.62,220.19 442.09,135.16 440,32.7 c -133,0.29 -266,0 -399,0 z" style="fill:#32ac60;fill-opacity:1;fill-rule:evenodd"/><path style="fill:#fff;fill-rule:evenodd;stroke:none;stroke-width:1px;stroke-linecap:butt;stroke-linejoin:miter;stroke-opacity:1" id="path4261" d="m 213.49554,510.24294 9.85834,-170.36453 c -17.45436,-9.43349 -17.58951,-28.47575 -16.95921,-36.29997 1.38619,-17.20733 9.56646,-27.83849 13.87848,-45.33946 4.16868,-16.91922 7.19191,-29.83666 5.8534,-47.29173 -1.21353,-15.82515 -12.04031,-26.02499 -23.72165,-30.34274 L 192.5,77.5 l 96,0 -9.9049,103.10451 c -11.68134,4.31775 -22.50812,14.51759 -23.72165,30.34274 -1.33851,17.45507 1.68472,30.37251 5.8534,47.29173 4.31202,17.50097 12.49229,28.13213 13.87848,45.33946 0.6303,7.82422 0.49515,26.86648 -16.95921,36.29997 L 267.50446,510.24294 240.5,531.19193 Z"/><path id="path4259" d="m 122.5,77.5 48,0 -9.9049,103.10451 c -11.68134,4.31775 -22.50812,14.51759 -23.72165,30.34274 -1.33851,17.45507 1.68472,30.37251 5.8534,47.29173 4.31202,17.50097 12.49229,28.13213 13.87848,45.33946 0.6303,7.82422 0.49515,26.86648 -16.95921,36.29997 l 5.84363,100.98526 c -19.18118,-25.73792 -34.09379,-51.06272 -42.0266,-68.31099 l 1.89073,-32.67427 c -17.45436,-9.43349 -17.58951,-28.47575 -16.95921,-36.29997 1.38619,-17.20733 9.56646,-27.83849 13.87848,-45.33946 4.16868,-16.91922 7.19191,-29.83666 5.8534,-47.29173 C 106.91302,195.1221 96.08624,184.92226 84.4049,180.60451 L 74.5,77.5 l 48,0" style="fill:#fff;fill-rule:evenodd;stroke:none;stroke-width:1px;stroke-linecap:butt;stroke-linejoin:miter;stroke-opacity:1"/><path style="fill:#fff;fill-rule:evenodd;stroke:none;stroke-width:1px;stroke-linecap:butt;stroke-linejoin:miter;stroke-opacity:1" id="path4257" d="m 358.5,77.5 -48,0 9.9049,103.10451 c 11.68134,4.31775 22.50812,14.51759 23.72165,30.34274 1.33851,17.45507 -1.68472,30.37251 -5.8534,47.29173 -4.31202,17.50097 -12.49229,28.13213 -13.87848,45.33946 -0.6303,7.82422 -0.49515,26.86648 16.95921,36.29997 l -5.84363,100.98526 c 19.18118,-25.73792 34.09379,-51.06272 42.0266,-68.31099 l -1.89073,-32.67427 c 17.45436,-9.43349 17.58951,-28.47575 16.95921,-36.29997 -1.38619,-17.20733 -9.56646,-27.83849 -13.87848,-45.33946 -4.16868,-16.91922 -7.19191,-29.83666 -5.8534,-47.29173 1.21353,-15.82515 12.04031,-26.02499 23.72165,-30.34274 L 406.5,77.5 l -48,0"/><path id="path4224" d="m 41,32.7 c -2.09,102.46 3.38,187.49 43.93,296.59 28.05,75.48 74.21,144.77 155.57,201.59 C 321.86,474.06 368.02,404.77 396.07,329.29 436.62,220.19 442.09,135.16 440,32.7 c -133,0.29 -266,0 -399,0 z" style="fill:none;stroke:#000"/><path id="path4216" d="m 213.49554,510.24294 9.85834,-170.36453 c -17.45436,-9.43349 -17.58951,-28.47575 -16.95921,-36.29997 1.38619,-17.20733 9.56646,-27.83849 13.87848,-45.33946 4.16868,-16.91922 7.19191,-29.83666 5.8534,-47.29173 -1.21353,-15.82515 -12.04031,-26.02499 -23.72165,-30.34274 L 192.5,77.5 l 96,0 -9.9049,103.10451 c -11.68134,4.31775 -22.50812,14.51759 -23.72165,30.34274 -1.33851,17.45507 1.68472,30.37251 5.8534,47.29173 4.31202,17.50097 12.49229,28.13213 13.87848,45.33946 0.6303,7.82422 0.49515,26.86648 -16.95921,36.29997 l 9.85834,170.36453" style="fill:none;fill-rule:evenodd;stroke:#000;stroke-width:1px;stroke-linecap:butt;stroke-linejoin:miter;stroke-opacity:1"/><circle id="path4219" cx="240.5" cy="238.931" r="4.482" style="opacity:.98999999;fill:none;fill-opacity:1;fill-rule:evenodd;stroke:#000;stroke-width:1;stroke-miterlimit:4;stroke-dasharray:none;stroke-opacity:1"/><path id="path4221" d="m 217.64694,267.5 c 15.23537,0 30.47075,0 45.70612,0" style="fill:none;fill-rule:evenodd;stroke:#000;stroke-width:1px;stroke-linecap:butt;stroke-linejoin:miter;stroke-opacity:1"/><path style="fill:none;fill-rule:evenodd;stroke:#000;stroke-width:1px;stroke-linecap:butt;stroke-linejoin:miter;stroke-opacity:1" id="path4233" d="m 122.5,77.5 48,0 -9.9049,103.10451 c -11.68134,4.31775 -22.50812,14.51759 -23.72165,30.34274 -1.33851,17.45507 1.68472,30.37251 5.8534,47.29173 4.31202,17.50097 12.49229,28.13213 13.87848,45.33946 0.6303,7.82422 0.49515,26.86648 -16.95921,36.29997 l 5.84363,100.98526 m -42.0266,-68.31099 1.89073,-32.67427 c -17.45436,-9.43349 -17.58951,-28.47575 -16.95921,-36.29997 1.38619,-17.20733 9.56646,-27.83849 13.87848,-45.33946 4.16868,-16.91922 7.19191,-29.83666 5.8534,-47.29173 C 106.91302,195.1221 96.08624,184.92226 84.4049,180.60451 L 74.5,77.5 l 48,0"/><circle style="opacity:.98999999;fill:none;fill-opacity:1;fill-rule:evenodd;stroke:#000;stroke-width:1;stroke-miterlimit:4;stroke-dasharray:none;stroke-opacity:1" id="circle4235" cx="-122.5" cy="238.931" r="4.482" transform="scale(-1,1)"/><path style="fill:none;fill-rule:evenodd;stroke:#000;stroke-width:1px;stroke-linecap:butt;stroke-linejoin:miter;stroke-opacity:1" id="path4237" d="m 145.35306,267.5 c -15.23537,0 -30.47075,0 -45.70612,0"/><circle id="circle4241" cx="122.5" cy="238.931" r="4.482" style="opacity:.98999999;fill:none;fill-opacity:1;fill-rule:evenodd;stroke:#000;stroke-width:1;stroke-miterlimit:4;stroke-dasharray:none;stroke-opacity:1"/><path id="path4249" d="m 358.5,77.5 -48,0 9.9049,103.10451 c 11.68134,4.31775 22.50812,14.51759 23.72165,30.34274 1.33851,17.45507 -1.68472,30.37251 -5.8534,47.29173 -4.31202,17.50097 -12.49229,28.13213 -13.87848,45.33946 -0.6303,7.82422 -0.49515,26.86648 16.95921,36.29997 l -5.84363,100.98526 m 42.0266,-68.31099 -1.89073,-32.67427 c 17.45436,-9.43349 17.58951,-28.47575 16.95921,-36.29997 -1.38619,-17.20733 -9.56646,-27.83849 -13.87848,-45.33946 -4.16868,-16.91922 -7.19191,-29.83666 -5.8534,-47.29173 1.21353,-15.82515 12.04031,-26.02499 23.72165,-30.34274 L 406.5,77.5 l -48,0" style="fill:none;fill-rule:evenodd;stroke:#000;stroke-width:1px;stroke-linecap:butt;stroke-linejoin:miter;stroke-opacity:1"/><circle style="opacity:.98999999;fill:none;fill-opacity:1;fill-rule:evenodd;stroke:#000;stroke-width:1;stroke-miterlimit:4;stroke-dasharray:none;stroke-opacity:1" id="circle4253" cx="-358.5" cy="238.931" r="4.482" transform="scale(-1,1)"/><path style="fill:none;fill-rule:evenodd;stroke:#000;stroke-width:1px;stroke-linecap:butt;stroke-linejoin:miter;stroke-opacity:1" id="path4255" d="m 381.35306,267.5 c -15.23537,0 -30.47075,0 -45.70612,0"/></svg>