<svg xmlns="http://www.w3.org/2000/svg" xmlns:svg="http://www.w3.org/2000/svg" id="svg2" width="420" height="500" x="0" y="0" enable-background="new 30.5 31.5 412 533" version="1.1" viewBox="30.5 31.5 420 500" xml:space="preserve"><metadata id="metadata4"/><path style="fill-rule:evenodd;fill:#ffe000;fill-opacity:1" id="path4218" d="m440 32.7c2.09 102.46-3.38 187.49-43.93 296.59C368.02 404.77 321.86 474.06 240.5 530.88 159.14 474.06 112.98 404.77 84.93 329.29 44.38 220.19 38.91 135.16 41 32.7c133 0.29 266 0 399 0z"/><path style="fill:none;stroke:#000" id="path4224" d="m440 32.7c2.09 102.46-3.38 187.49-43.93 296.59C368.02 404.77 321.86 474.06 240.5 530.88 159.14 474.06 112.98 404.77 84.93 329.29 44.38 220.19 38.91 135.16 41 32.7c133 0.29 266 0 399 0z"/><path id="path4196" d="m 212.76569,259.00518 c 11.26045,19.76694 29.40456,41.07659 52.50213,63.78462 -24.93304,-4.13697 -59.28546,-18.34634 -76.12074,-42.68104 -17.66751,13.08477 -44.92008,24.61477 -72.0759,25.51263 40.05393,-40.43042 64.82348,-59.0859 107.86423,-87.21719 l -0.0245,-7.36417 14.81402,-12.16505 -0.46676,-5.58428 7.06291,-6.16557 5.86431,1.00163 187.88876,-152.158999 0.2459,48.116246 -169.53047,128.892333 0,4.38569 -7.26827,5.75679 -4.40498,-1.272 -15.0914,12.17665 -7.43756,-2.16614 z" style="fill:#000;fill-rule:evenodd;stroke:#000;stroke-width:.30000001;stroke-linecap:round;stroke-linejoin:round;stroke-miterlimit:4;stroke-dasharray:none;stroke-opacity:1"/><circle id="path4200" cx="285.597" cy="181.85" r="4.994" style="opacity:1;fill:#ffe000;fill-opacity:1;fill-rule:evenodd;stroke:none;stroke-width:.27060524;stroke-linecap:round;stroke-linejoin:round;stroke-miterlimit:4;stroke-dasharray:none;stroke-opacity:1"/><path style="fill:#000;fill-rule:evenodd;stroke:#000;stroke-width:.3;stroke-linecap:round;stroke-linejoin:round;stroke-miterlimit:4;stroke-dasharray:none;stroke-opacity:1" id="path4202" d="m 315.57155,32.800046 -97.72681,74.300724 0,4.38569 -7.26827,5.75679 -4.40498,-1.272 -15.0914,12.17665 -7.43756,-2.16614 -23.82168,27.14785 c 11.26045,19.76694 29.40456,41.07659 52.50213,63.78462 -24.93304,-4.13697 -59.28546,-18.34634 -76.12074,-42.68104 -17.66751,13.08477 -44.920082,24.61477 -72.075902,25.51263 40.053932,-40.43042 64.823482,-59.0859 107.864232,-87.21719 l -0.0245,-7.36417 14.81402,-12.165047 -0.46676,-5.58428 7.06291,-6.16557 5.86431,1.00163 61.08206,-49.466425 z"/><circle style="opacity:1;fill:#ffe000;fill-opacity:1;fill-rule:evenodd;stroke:none;stroke-width:.27060524;stroke-linecap:round;stroke-linejoin:round;stroke-miterlimit:4;stroke-dasharray:none;stroke-opacity:1" id="circle4204" cx="235.309" cy="73.317" r="4.994"/><path style="fill:#000;fill-rule:evenodd;stroke:#000;stroke-width:.3;stroke-linecap:round;stroke-linejoin:round;stroke-miterlimit:4;stroke-dasharray:none;stroke-opacity:1" id="path4206" d="m 421.37905,247.18262 -96.55861,73.41255 0,4.38569 -7.26827,5.75679 -4.40498,-1.272 -15.0914,12.17665 -7.43756,-2.16614 -23.82168,27.14785 c 11.26045,19.76694 29.40456,41.07659 52.50213,63.78462 -24.93304,-4.13697 -59.28546,-18.34634 -76.12074,-42.68104 -17.66751,13.08477 -44.92008,24.61477 -72.0759,25.51263 40.05393,-40.43042 64.82348,-59.0859 107.86423,-87.21719 l -0.0245,-7.36417 14.81402,-12.16505 -0.46676,-5.58428 7.06291,-6.16557 5.86431,1.00163 125.60508,-101.71946 c -2.83546,17.8622 -6.29755,35.58524 -10.44228,53.15649 z"/><circle style="opacity:1;fill:#ffe000;fill-opacity:1;fill-rule:evenodd;stroke:none;stroke-width:.27060524;stroke-linecap:round;stroke-linejoin:round;stroke-miterlimit:4;stroke-dasharray:none;stroke-opacity:1" id="circle4208" cx="340.513" cy="289.468" r="4.994"/></svg>