<svg xmlns="http://www.w3.org/2000/svg" xmlns:svg="http://www.w3.org/2000/svg" id="svg2" width="400" height="500" x="0" y="0" enable-background="new 30.5 31.5 412 533" version="1.1" viewBox="30.5 31.5 400 500" xml:space="preserve"><metadata id="metadata4"/><path style="fill:#0085ca" id="path8" d="M 230.56,531.14 C 304.88,477.22 355.82,409.12 386.3,322.98 413.94,244.88 425.03,150.23 420.21,33.63 l -0.02,-0.46 -379.82,0 -0.02,0.46 c -4.81,116.6 6.28,211.24 33.91,289.35 30.48,86.14 81.42,154.24 155.74,208.16 l 0.28,0.2 0.28,-0.2 z"/><path id="path10" d="M 41.04,33.21 C 31.97,252.66 77.3,419.16 230.5,530.31 383.69,419.16 429.01,252.66 419.94,33.21 l -189.45,0 -189.45,0 m -0.92,-0.95 0.92,0 189.45,0 189.45,0 0.92,0 0.04,0.92 c 4.82,116.66 -6.28,211.36 -33.93,289.52 -30.51,86.24 -81.51,154.41 -155.91,208.39 l -0.56,0.41 -0.56,-0.41 C 155.54,477.11 104.54,408.94 74.03,322.7 46.38,244.54 35.28,149.84 40.1,33.18 l 0.04,-0.92 0,0 z"/><path style="fill:#fff;fill-rule:evenodd;stroke:#000;stroke-linejoin:round" id="path4220" d="m 239.04,242.89 -4.69,0 0,9.91 66.15,64.7 -20,32 0,63 -50,0 -50,0 0,-63 -20,-32 66.15,-64.7 0,-9.91 -4.69,0 8.54,-10.11 z"/><path style="fill:#0085ca;fill-rule:evenodd;stroke:#000;stroke-linecap:round;stroke-linejoin:round" id="path4238" d="m 248.75,349.5 10,-32 36.25,0 -20,32 z"/><path style="fill:#0085ca;fill-rule:evenodd;stroke:#000;stroke-linecap:round;stroke-linejoin:round" id="path4297" d="m 217.75,349.5 -10,-32 22.75,0 22.75,0 -10,32 -12.75,0 z"/><path style="fill:#0085ca;fill-rule:evenodd;stroke:#000;stroke-linecap:round;stroke-linejoin:round" id="path4301" d="m 212.25,349.5 -10,-32 -36.25,0 20,32 z"/><path style="fill:#fff;fill-rule:evenodd;stroke:#000;stroke-linejoin:round" id="path4311" d="m 157.04,79.61 -4.69,0 0,9.91 66.15,64.7 -20,32 0,63 -50,0 -50,0 0,-63 -20,-32 66.15,-64.7 0,-9.91 -4.69,0 8.54,-10.11 z"/><path style="fill:#0085ca;fill-rule:evenodd;stroke:#000;stroke-linecap:round;stroke-linejoin:round" id="path4313" d="m 166.75,186.22 10,-32 36.25,0 -20,32 z"/><path style="fill:#0085ca;fill-rule:evenodd;stroke:#000;stroke-linecap:round;stroke-linejoin:round" id="path4315" d="m 135.75,186.22 -10,-32 22.75,0 22.75,0 -10,32 -12.75,0 z"/><path style="fill:#0085ca;fill-rule:evenodd;stroke:#000;stroke-linecap:round;stroke-linejoin:round" id="path4317" d="m 130.25,186.22 -10,-32 -36.25,0 20,32 z"/><path style="fill:#fff;fill-rule:evenodd;stroke:#000;stroke-linejoin:round" id="path4319" d="m 321.04,79.61 -4.69,0 0,9.91 66.15,64.7 -20,32 0,63 -50,0 -50,0 0,-63 -20,-32 66.15,-64.7 0,-9.91 -4.69,0 8.54,-10.11 z"/><path style="fill:#0085ca;fill-rule:evenodd;stroke:#000;stroke-linecap:round;stroke-linejoin:round" id="path4321" d="m 330.75,186.22 10,-32 36.25,0 -20,32 z"/><path style="fill:#0085ca;fill-rule:evenodd;stroke:#000;stroke-linecap:round;stroke-linejoin:round" id="path4323" d="m 299.75,186.22 -10,-32 22.75,0 22.75,0 -10,32 -12.75,0 z"/><path style="fill:#0085ca;fill-rule:evenodd;stroke:#000;stroke-linecap:round;stroke-linejoin:round" id="path4325" d="m 294.25,186.22 -10,-32 -36.25,0 20,32 z"/></svg>