<svg xmlns="http://www.w3.org/2000/svg" xmlns:osb="http://www.openswatchbook.org/uri/2009/osb" xmlns:svg="http://www.w3.org/2000/svg" id="svg2985" width="2000" height="1200" version="1.1"><metadata id="metadata2991"/><defs id="defs2989"><linearGradient id="linearGradient6445" osb:paint="solid"><stop style="stop-color:#000;stop-opacity:1" id="stop6447" offset="0"/></linearGradient><linearGradient id="linearGradient5439" osb:paint="solid"><stop style="stop-color:#93b76b;stop-opacity:1" id="stop5441" offset="0"/></linearGradient><filter id="filter5728"><feGaussianBlur id="feGaussianBlur5730" stdDeviation="3.29"/></filter></defs><path style="fill:#0b51a1;stroke:none;stroke-width:1px;stroke-linecap:butt;stroke-linejoin:miter;stroke-opacity:1;fill-opacity:1" id="path5810" d="M 0,1200 0,0 l 2000,0 0,1200 z"/><g id="g5864" transform="matrix(-0.80901699,0.58778526,-0.58778526,-0.80901699,2167.566,515.71519)"><path style="fill:none;stroke:#003100;stroke-width:5;stroke-linecap:butt;stroke-linejoin:miter;stroke-miterlimit:4;stroke-opacity:1;stroke-dasharray:none" id="path5866" d="m 1182.5825,358.6967 100.599,-138.46257"/><path id="path5868" d="m 1197.5377,335.15376 c 0.1483,-0.12071 18.8711,-25.82757 41.6069,-57.12589 l 41.334,-56.90829 -38.1706,12.30144 c -20.9943,6.76469 -38.2046,12.3672 -38.2454,12.44983 -0.041,0.0809 0.4522,2.31911 1.0966,4.97339 3.7747,15.5455 4.3575,30.96826 1.8006,47.64174 -1.6274,10.6107 -4.641,22.2839 -8.3948,32.51545 -1.3961,3.80542 -1.5967,4.61343 -1.0303,4.15107 l 0,0 z" style="fill:#217200;fill-opacity:1;stroke:none"/><path style="fill:none;stroke:#003100;stroke-width:5;stroke-linecap:square;stroke-linejoin:miter;stroke-miterlimit:4;stroke-opacity:1;stroke-dasharray:none" id="path5870" d="m 1285,305 0,-87 -82.7418,26.88442"/><path style="fill:#5ab124;fill-opacity:1;stroke:none" id="path5872" d="m 1200.001,337.65119 c 0.069,-0.17816 18.732,-25.92861 41.4728,-57.22322 l 41.3466,-56.89928 0.096,40.10383 c 0.054,22.0571 0.044,40.15646 -0.022,40.22082 -0.064,0.0643 -2.3453,0.28658 -5.0689,0.49384 -15.951,1.21389 -30.799,5.42546 -45.8663,13.00976 -9.5884,4.82647 -19.7591,11.29993 -28.3299,18.03169 -3.1878,2.50368 -3.8943,2.94415 -3.6295,2.26256 l 0,0 z"/></g><g id="g5854" transform="matrix(-0.809017,-0.58778525,0.58778525,-0.809017,1450.4679,1691.2856)"><path id="path5856" d="m 1182.5825,358.6967 100.599,-138.46257" style="fill:none;stroke:#003100;stroke-width:5;stroke-linecap:butt;stroke-linejoin:miter;stroke-miterlimit:4;stroke-opacity:1;stroke-dasharray:none"/><path style="fill:#217200;fill-opacity:1;stroke:none" id="path5858" d="m 1197.5377,335.15376 c 0.1483,-0.12071 18.8711,-25.82757 41.6069,-57.12589 l 41.334,-56.90829 -38.1706,12.30144 c -20.9943,6.76469 -38.2046,12.3672 -38.2454,12.44983 -0.041,0.0809 0.4522,2.31911 1.0966,4.97339 3.7747,15.5455 4.3575,30.96826 1.8006,47.64174 -1.6274,10.6107 -4.641,22.2839 -8.3948,32.51545 -1.3961,3.80542 -1.5967,4.61343 -1.0303,4.15107 l 0,0 z"/><path id="path5860" d="m 1285,305 0,-87 -82.7418,26.88442" style="fill:none;stroke:#003100;stroke-width:5;stroke-linecap:square;stroke-linejoin:miter;stroke-miterlimit:4;stroke-opacity:1;stroke-dasharray:none"/><path id="path5862" d="m 1200.001,337.65119 c 0.069,-0.17816 18.732,-25.92861 41.4728,-57.22322 l 41.3466,-56.89928 0.096,40.10383 c 0.054,22.0571 0.044,40.15646 -0.022,40.22082 -0.064,0.0643 -2.3453,0.28658 -5.0689,0.49384 -15.951,1.21389 -30.799,5.42546 -45.8663,13.00976 -9.5884,4.82647 -19.7591,11.29993 -28.3299,18.03169 -3.1878,2.50368 -3.8943,2.94415 -3.6295,2.26256 l 0,0 z" style="fill:#5ab124;fill-opacity:1;stroke:none"/></g><g id="g5844" transform="matrix(0.30901699,-0.95105652,0.95105652,0.30901699,110.83853,1372.5561)"><path style="fill:none;stroke:#003100;stroke-width:5;stroke-linecap:butt;stroke-linejoin:miter;stroke-miterlimit:4;stroke-opacity:1;stroke-dasharray:none" id="path5846" d="m 1182.5825,358.6967 100.599,-138.46257"/><path id="path5848" d="m 1197.5377,335.15376 c 0.1483,-0.12071 18.8711,-25.82757 41.6069,-57.12589 l 41.334,-56.90829 -38.1706,12.30144 c -20.9943,6.76469 -38.2046,12.3672 -38.2454,12.44983 -0.041,0.0809 0.4522,2.31911 1.0966,4.97339 3.7747,15.5455 4.3575,30.96826 1.8006,47.64174 -1.6274,10.6107 -4.641,22.2839 -8.3948,32.51545 -1.3961,3.80542 -1.5967,4.61343 -1.0303,4.15107 l 0,0 z" style="fill:#217200;fill-opacity:1;stroke:none"/><path style="fill:none;stroke:#003100;stroke-width:5;stroke-linecap:square;stroke-linejoin:miter;stroke-miterlimit:4;stroke-opacity:1;stroke-dasharray:none" id="path5850" d="m 1285,305 0,-87 -82.7418,26.88442"/><path style="fill:#5ab124;fill-opacity:1;stroke:none" id="path5852" d="m 1200.001,337.65119 c 0.069,-0.17816 18.732,-25.92861 41.4728,-57.22322 l 41.3466,-56.89928 0.096,40.10383 c 0.054,22.0571 0.044,40.15646 -0.022,40.22082 -0.064,0.0643 -2.3453,0.28658 -5.0689,0.49384 -15.951,1.21389 -30.799,5.42546 -45.8663,13.00976 -9.5884,4.82647 -19.7591,11.29993 -28.3299,18.03169 -3.1878,2.50368 -3.8943,2.94415 -3.6295,2.26256 l 0,0 z"/></g><path style="fill:#fff;stroke:none;stroke-width:1px;stroke-linecap:butt;stroke-linejoin:miter;stroke-opacity:1;fill-opacity:1" id="path6303" d="m 830,550 170,-120 170,120 -70,200 -205,0 z"/><g id="g5838"><path id="path2999-1-7" d="m 1182.5825,358.6967 100.599,-138.46257" style="fill:none;stroke:#003100;stroke-width:5;stroke-linecap:butt;stroke-linejoin:miter;stroke-miterlimit:4;stroke-opacity:1;stroke-dasharray:none"/><path style="fill:#217200;fill-opacity:1;stroke:none" id="path5816" d="m 1197.5377,335.15376 c 0.1483,-0.12071 18.8711,-25.82757 41.6069,-57.12589 l 41.334,-56.90829 -38.1706,12.30144 c -20.9943,6.76469 -38.2046,12.3672 -38.2454,12.44983 -0.041,0.0809 0.4522,2.31911 1.0966,4.97339 3.7747,15.5455 4.3575,30.96826 1.8006,47.64174 -1.6274,10.6107 -4.641,22.2839 -8.3948,32.51545 -1.3961,3.80542 -1.5967,4.61343 -1.0303,4.15107 l 0,0 z"/><path id="path5792" d="m 1285,305 0,-87 -82.7418,26.88442" style="fill:none;stroke:#003100;stroke-width:5;stroke-linecap:square;stroke-linejoin:miter;stroke-miterlimit:4;stroke-opacity:1;stroke-dasharray:none"/><path id="path5814" d="m 1200.001,337.65119 c 0.069,-0.17816 18.732,-25.92861 41.4728,-57.22322 l 41.3466,-56.89928 0.096,40.10383 c 0.054,22.0571 0.044,40.15646 -0.022,40.22082 -0.064,0.0643 -2.3453,0.28658 -5.0689,0.49384 -15.951,1.21389 -30.799,5.42546 -45.8663,13.00976 -9.5884,4.82647 -19.7591,11.29993 -28.3299,18.03169 -3.1878,2.50368 -3.8943,2.94415 -3.6295,2.26256 l 0,0 z" style="fill:#5ab124;fill-opacity:1;stroke:none"/></g><g id="g5874" transform="matrix(0.309017,0.95105651,-0.95105651,0.309017,1271.1276,-529.55686)"><path id="path5876" d="m 1182.5825,358.6967 100.599,-138.46257" style="fill:none;stroke:#003100;stroke-width:5;stroke-linecap:butt;stroke-linejoin:miter;stroke-miterlimit:4;stroke-opacity:1;stroke-dasharray:none"/><path style="fill:#217200;fill-opacity:1;stroke:none" id="path5878" d="m 1197.5377,335.15376 c 0.1483,-0.12071 18.8711,-25.82757 41.6069,-57.12589 l 41.334,-56.90829 -38.1706,12.30144 c -20.9943,6.76469 -38.2046,12.3672 -38.2454,12.44983 -0.041,0.0809 0.4522,2.31911 1.0966,4.97339 3.7747,15.5455 4.3575,30.96826 1.8006,47.64174 -1.6274,10.6107 -4.641,22.2839 -8.3948,32.51545 -1.3961,3.80542 -1.5967,4.61343 -1.0303,4.15107 l 0,0 z"/><path id="path5880" d="m 1285,305 0,-87 -82.7418,26.88442" style="fill:none;stroke:#003100;stroke-width:5;stroke-linecap:square;stroke-linejoin:miter;stroke-miterlimit:4;stroke-opacity:1;stroke-dasharray:none"/><path id="path5882" d="m 1200.001,337.65119 c 0.069,-0.17816 18.732,-25.92861 41.4728,-57.22322 l 41.3466,-56.89928 0.096,40.10383 c 0.054,22.0571 0.044,40.15646 -0.022,40.22082 -0.064,0.0643 -2.3453,0.28658 -5.0689,0.49384 -15.951,1.21389 -30.799,5.42546 -45.8663,13.00976 -9.5884,4.82647 -19.7591,11.29993 -28.3299,18.03169 -3.1878,2.50368 -3.8943,2.94415 -3.6295,2.26256 l 0,0 z" style="fill:#5ab124;fill-opacity:1;stroke:none"/></g><g id="g5637" style="fill:#fff;stroke:#6a5000;stroke-opacity:1;fill-opacity:1"><path id="path5479" d="m 840,390 c -130,-180 50,-245 160,-245 110,0 290,65 160,245" style="fill:#fff;stroke:#6a5000;stroke-width:10;stroke-linecap:butt;stroke-linejoin:miter;stroke-miterlimit:4;stroke-opacity:1;stroke-dasharray:none;fill-opacity:1"/><path style="fill:#fff;stroke:#6a5000;stroke-width:10;stroke-linecap:butt;stroke-linejoin:miter;stroke-miterlimit:4;stroke-opacity:1;stroke-dasharray:none;fill-opacity:1" id="path5629" d="M 741.32485,694.1853 C 529.96247,762.1996 523.76686,570.92332 557.75872,466.3071 591.75059,361.69088 709.19233,210.58681 840.21032,389.8472"/><path id="path5631" d="M 1000.13,882.02938 C 999.50085,1104.0645 815.67174,1050.8493 726.67987,986.19291 637.688,921.53653 530.27098,763.14907 741.24453,693.93806" style="fill:#fff;stroke:#6a5000;stroke-width:10;stroke-linecap:butt;stroke-linejoin:miter;stroke-miterlimit:4;stroke-opacity:1;stroke-dasharray:none;fill-opacity:1"/><path style="fill:#fff;stroke:#6a5000;stroke-width:10;stroke-linecap:butt;stroke-linejoin:miter;stroke-miterlimit:4;stroke-opacity:1;stroke-dasharray:none;fill-opacity:1" id="path5633" d="m 1258.7555,693.93808 c 210.9735,69.21099 103.5565,227.59844 14.5646,292.25482 -88.9918,64.6564 -272.8209,117.8716 -273.45009,-104.16354"/><path id="path5635" d="m 1159.7897,389.84717 c 131.018,-179.26032 248.4597,-28.15625 282.4516,76.45994 33.9919,104.61616 27.7963,295.89248 -183.5662,227.87821" style="fill:#fff;stroke:#6a5000;stroke-width:10;stroke-linecap:butt;stroke-linejoin:miter;stroke-miterlimit:4;stroke-opacity:1;stroke-dasharray:none;fill-opacity:1"/></g><g id="g6173" transform="matrix(-0.5811606,0,0,-0.5811606,1581.1171,960.86932)"><path id="path6175" d="m 1182.5825,358.6967 100.599,-138.46257" style="fill:none;stroke:#003100;stroke-width:5;stroke-linecap:butt;stroke-linejoin:miter;stroke-miterlimit:4;stroke-opacity:1;stroke-dasharray:none"/><path style="fill:#217200;fill-opacity:1;stroke:none" id="path6177" d="m 1197.5377,335.15376 c 0.1483,-0.12071 18.8711,-25.82757 41.6069,-57.12589 l 41.334,-56.90829 -38.1706,12.30144 c -20.9943,6.76469 -38.2046,12.3672 -38.2454,12.44983 -0.041,0.0809 0.4522,2.31911 1.0966,4.97339 3.7747,15.5455 4.3575,30.96826 1.8006,47.64174 -1.6274,10.6107 -4.641,22.2839 -8.3948,32.51545 -1.3961,3.80542 -1.5967,4.61343 -1.0303,4.15107 l 0,0 z"/><path id="path6179" d="m 1285,305 0,-87 -82.7418,26.88442" style="fill:none;stroke:#003100;stroke-width:5;stroke-linecap:square;stroke-linejoin:miter;stroke-miterlimit:4;stroke-opacity:1;stroke-dasharray:none"/><path id="path6181" d="m 1200.001,337.65119 c 0.069,-0.17816 18.732,-25.92861 41.4728,-57.22322 l 41.3466,-56.89928 0.096,40.10383 c 0.054,22.0571 0.044,40.15646 -0.022,40.22082 -0.064,0.0643 -2.3453,0.28658 -5.0689,0.49384 -15.951,1.21389 -30.799,5.42546 -45.8663,13.00976 -9.5884,4.82647 -19.7591,11.29993 -28.3299,18.03169 -3.1878,2.50368 -3.8943,2.94415 -3.6295,2.26256 l 0,0 z" style="fill:#5ab124;fill-opacity:1;stroke:none"/></g><path id="path5672" d="m 1105,245 c -30,0 -63.0005,20 -105,20 -41.99953,0 -75,-20 -105,-20 -30,0 -45,20 -5,80 -95,-70 -35,-117 5,-117 40,0 63.00047,17 105,17 41.9995,0 65,-17 105,-17 40,0 100,47 5,117 40,-60 25,-80 -5,-80 z" style="fill:#d1d159;fill-opacity:1;stroke:#d1d159;stroke-width:3.20000005;stroke-linecap:butt;stroke-linejoin:miter;stroke-miterlimit:4;stroke-opacity:1;stroke-dasharray:none;filter:url(#filter5728)"/><g id="g6203" transform="matrix(0.47016879,-0.34159763,0.34159763,0.47016879,321.41319,661.15594)"><path style="fill:none;stroke:#003100;stroke-width:5;stroke-linecap:butt;stroke-linejoin:miter;stroke-miterlimit:4;stroke-opacity:1;stroke-dasharray:none" id="path6205" d="m 1182.5825,358.6967 100.599,-138.46257"/><path id="path6207" d="m 1197.5377,335.15376 c 0.1483,-0.12071 18.8711,-25.82757 41.6069,-57.12589 l 41.334,-56.90829 -38.1706,12.30144 c -20.9943,6.76469 -38.2046,12.3672 -38.2454,12.44983 -0.041,0.0809 0.4522,2.31911 1.0966,4.97339 3.7747,15.5455 4.3575,30.96826 1.8006,47.64174 -1.6274,10.6107 -4.641,22.2839 -8.3948,32.51545 -1.3961,3.80542 -1.5967,4.61343 -1.0303,4.15107 l 0,0 z" style="fill:#217200;fill-opacity:1;stroke:none"/><path style="fill:none;stroke:#003100;stroke-width:5;stroke-linecap:square;stroke-linejoin:miter;stroke-miterlimit:4;stroke-opacity:1;stroke-dasharray:none" id="path6209" d="m 1285,305 0,-87 -82.7418,26.88442"/><path style="fill:#5ab124;fill-opacity:1;stroke:none" id="path6211" d="m 1200.001,337.65119 c 0.069,-0.17816 18.732,-25.92861 41.4728,-57.22322 l 41.3466,-56.89928 0.096,40.10383 c 0.054,22.0571 0.044,40.15646 -0.022,40.22082 -0.064,0.0643 -2.3453,0.28658 -5.0689,0.49384 -15.951,1.21389 -30.799,5.42546 -45.8663,13.00976 -9.5884,4.82647 -19.7591,11.29993 -28.3299,18.03169 -3.1878,2.50368 -3.8943,2.94415 -3.6295,2.26256 l 0,0 z"/></g><path style="fill:none;stroke:#6a5000;stroke-width:10;stroke-linecap:butt;stroke-linejoin:miter;stroke-miterlimit:4;stroke-opacity:1;stroke-dasharray:none" id="path5668" d="m 890,325 c -95,-70 -35,-117 5,-117 40,0 63.00047,17 105,17 41.9995,0 65,-17 105,-17 40,0 100,47 5,117"/><g id="g5764" transform="matrix(0.30901699,-0.95105651,0.95105651,0.30901699,110.83853,1372.5562)"><path id="path5766" d="m 1105,245 c -30,0 -63.0005,20 -105,20 -41.99953,0 -75,-20 -105,-20 -30,0 -45,20 -5,80 -95,-70 -35,-117 5,-117 40,0 63.00047,17 105,17 41.9995,0 65,-17 105,-17 40,0 100,47 5,117 40,-60 25,-80 -5,-80 z" style="fill:#d1d159;fill-opacity:1;stroke:#d1d159;stroke-width:3.20000005;stroke-linecap:butt;stroke-linejoin:miter;stroke-miterlimit:4;stroke-opacity:1;stroke-dasharray:none;filter:url(#filter5728)"/><path style="fill:none;stroke:#6a5000;stroke-width:10;stroke-linecap:butt;stroke-linejoin:miter;stroke-miterlimit:4;stroke-opacity:1;stroke-dasharray:none" id="path5768" d="m 890,325 c -95,-70 -35,-117 5,-117 40,0 63.00047,17 105,17 41.9995,0 65,-17 105,-17 40,0 100,47 5,117"/></g><g id="g5770" transform="matrix(-0.80901699,-0.58778525,0.58778525,-0.80901699,1450.468,1691.2856)"><path style="fill:#d1d159;fill-opacity:1;stroke:#d1d159;stroke-width:3.20000005;stroke-linecap:butt;stroke-linejoin:miter;stroke-miterlimit:4;stroke-opacity:1;stroke-dasharray:none;filter:url(#filter5728)" id="path5772" d="m 1105,245 c -30,0 -63.0005,20 -105,20 -41.99953,0 -75,-20 -105,-20 -30,0 -45,20 -5,80 -95,-70 -35,-117 5,-117 40,0 63.00047,17 105,17 41.9995,0 65,-17 105,-17 40,0 100,47 5,117 40,-60 25,-80 -5,-80 z"/><path id="path5774" d="m 890,325 c -95,-70 -35,-117 5,-117 40,0 63.00047,17 105,17 41.9995,0 65,-17 105,-17 40,0 100,47 5,117" style="fill:none;stroke:#6a5000;stroke-width:10;stroke-linecap:butt;stroke-linejoin:miter;stroke-miterlimit:4;stroke-opacity:1;stroke-dasharray:none"/></g><g id="g6183" transform="matrix(-0.1795885,0.55271657,-0.55271657,-0.1795885,1516.7022,163.19381)"><path style="fill:none;stroke:#003100;stroke-width:5;stroke-linecap:butt;stroke-linejoin:miter;stroke-miterlimit:4;stroke-opacity:1;stroke-dasharray:none" id="path6185" d="m 1182.5825,358.6967 100.599,-138.46257"/><path id="path6187" d="m 1197.5377,335.15376 c 0.1483,-0.12071 18.8711,-25.82757 41.6069,-57.12589 l 41.334,-56.90829 -38.1706,12.30144 c -20.9943,6.76469 -38.2046,12.3672 -38.2454,12.44983 -0.041,0.0809 0.4522,2.31911 1.0966,4.97339 3.7747,15.5455 4.3575,30.96826 1.8006,47.64174 -1.6274,10.6107 -4.641,22.2839 -8.3948,32.51545 -1.3961,3.80542 -1.5967,4.61343 -1.0303,4.15107 l 0,0 z" style="fill:#217200;fill-opacity:1;stroke:none"/><path style="fill:none;stroke:#003100;stroke-width:5;stroke-linecap:square;stroke-linejoin:miter;stroke-miterlimit:4;stroke-opacity:1;stroke-dasharray:none" id="path6189" d="m 1285,305 0,-87 -82.7418,26.88442"/><path style="fill:#5ab124;fill-opacity:1;stroke:none" id="path6191" d="m 1200.001,337.65119 c 0.069,-0.17816 18.732,-25.92861 41.4728,-57.22322 l 41.3466,-56.89928 0.096,40.10383 c 0.054,22.0571 0.044,40.15646 -0.022,40.22082 -0.064,0.0643 -2.3453,0.28658 -5.0689,0.49384 -15.951,1.21389 -30.799,5.42546 -45.8663,13.00976 -9.5884,4.82647 -19.7591,11.29993 -28.3299,18.03169 -3.1878,2.50368 -3.8943,2.94415 -3.6295,2.26256 l 0,0 z"/></g><g id="g5776" transform="matrix(-0.80901699,0.58778525,-0.58778525,-0.80901699,2167.566,515.71511)"><path id="path5778" d="m 1105,245 c -30,0 -63.0005,20 -105,20 -41.99953,0 -75,-20 -105,-20 -30,0 -45,20 -5,80 -95,-70 -35,-117 5,-117 40,0 63.00047,17 105,17 41.9995,0 65,-17 105,-17 40,0 100,47 5,117 40,-60 25,-80 -5,-80 z" style="fill:#d1d159;fill-opacity:1;stroke:#d1d159;stroke-width:3.20000005;stroke-linecap:butt;stroke-linejoin:miter;stroke-miterlimit:4;stroke-opacity:1;stroke-dasharray:none;filter:url(#filter5728)"/><path style="fill:none;stroke:#6a5000;stroke-width:10;stroke-linecap:butt;stroke-linejoin:miter;stroke-miterlimit:4;stroke-opacity:1;stroke-dasharray:none" id="path5780" d="m 890,325 c -95,-70 -35,-117 5,-117 40,0 63.00047,17 105,17 41.9995,0 65,-17 105,-17 40,0 100,47 5,117"/></g><g id="g6193" transform="matrix(0.4701688,0.34159762,-0.34159762,0.4701688,738.16234,-22.039262)"><path id="path6195" d="m 1182.5825,358.6967 100.599,-138.46257" style="fill:none;stroke:#003100;stroke-width:5;stroke-linecap:butt;stroke-linejoin:miter;stroke-miterlimit:4;stroke-opacity:1;stroke-dasharray:none"/><path style="fill:#217200;fill-opacity:1;stroke:none" id="path6197" d="m 1197.5377,335.15376 c 0.1483,-0.12071 18.8711,-25.82757 41.6069,-57.12589 l 41.334,-56.90829 -38.1706,12.30144 c -20.9943,6.76469 -38.2046,12.3672 -38.2454,12.44983 -0.041,0.0809 0.4522,2.31911 1.0966,4.97339 3.7747,15.5455 4.3575,30.96826 1.8006,47.64174 -1.6274,10.6107 -4.641,22.2839 -8.3948,32.51545 -1.3961,3.80542 -1.5967,4.61343 -1.0303,4.15107 l 0,0 z"/><path id="path6199" d="m 1285,305 0,-87 -82.7418,26.88442" style="fill:none;stroke:#003100;stroke-width:5;stroke-linecap:square;stroke-linejoin:miter;stroke-miterlimit:4;stroke-opacity:1;stroke-dasharray:none"/><path id="path6201" d="m 1200.001,337.65119 c 0.069,-0.17816 18.732,-25.92861 41.4728,-57.22322 l 41.3466,-56.89928 0.096,40.10383 c 0.054,22.0571 0.044,40.15646 -0.022,40.22082 -0.064,0.0643 -2.3453,0.28658 -5.0689,0.49384 -15.951,1.21389 -30.799,5.42546 -45.8663,13.00976 -9.5884,4.82647 -19.7591,11.29993 -28.3299,18.03169 -3.1878,2.50368 -3.8943,2.94415 -3.6295,2.26256 l 0,0 z" style="fill:#5ab124;fill-opacity:1;stroke:none"/></g><g id="g5782" transform="matrix(0.30901699,0.95105651,-0.95105651,0.30901699,1271.1275,-529.55691)"><path style="fill:#d1d159;fill-opacity:1;stroke:#d1d159;stroke-width:3.20000005;stroke-linecap:butt;stroke-linejoin:miter;stroke-miterlimit:4;stroke-opacity:1;stroke-dasharray:none;filter:url(#filter5728)" id="path5784" d="m 1105,245 c -30,0 -63.0005,20 -105,20 -41.99953,0 -75,-20 -105,-20 -30,0 -45,20 -5,80 -95,-70 -35,-117 5,-117 40,0 63.00047,17 105,17 41.9995,0 65,-17 105,-17 40,0 100,47 5,117 40,-60 25,-80 -5,-80 z"/><path id="path5786" d="m 890,325 c -95,-70 -35,-117 5,-117 40,0 63.00047,17 105,17 41.9995,0 65,-17 105,-17 40,0 100,47 5,117" style="fill:none;stroke:#6a5000;stroke-width:10;stroke-linecap:butt;stroke-linejoin:miter;stroke-miterlimit:4;stroke-opacity:1;stroke-dasharray:none"/></g><g id="g6123" transform="matrix(-0.1795885,-0.55271657,0.55271657,-0.1795885,842.38794,1268.6269)"><path style="fill:none;stroke:#003100;stroke-width:5;stroke-linecap:butt;stroke-linejoin:miter;stroke-miterlimit:4;stroke-opacity:1;stroke-dasharray:none" id="path6125" d="m 1182.5825,358.6967 100.599,-138.46257"/><path id="path6127" d="m 1197.5377,335.15376 c 0.1483,-0.12071 18.8711,-25.82757 41.6069,-57.12589 l 41.334,-56.90829 -38.1706,12.30144 c -20.9943,6.76469 -38.2046,12.3672 -38.2454,12.44983 -0.041,0.0809 0.4522,2.31911 1.0966,4.97339 3.7747,15.5455 4.3575,30.96826 1.8006,47.64174 -1.6274,10.6107 -4.641,22.2839 -8.3948,32.51545 -1.3961,3.80542 -1.5967,4.61343 -1.0303,4.15107 l 0,0 z" style="fill:#217200;fill-opacity:1;stroke:none"/><path style="fill:none;stroke:#003100;stroke-width:5;stroke-linecap:square;stroke-linejoin:miter;stroke-miterlimit:4;stroke-opacity:1;stroke-dasharray:none" id="path6129" d="m 1285,305 0,-87 -82.7418,26.88442"/><path style="fill:#5ab124;fill-opacity:1;stroke:none" id="path6131" d="m 1200.001,337.65119 c 0.069,-0.17816 18.732,-25.92861 41.4728,-57.22322 l 41.3466,-56.89928 0.096,40.10383 c 0.054,22.0571 0.044,40.15646 -0.022,40.22082 -0.064,0.0643 -2.3453,0.28658 -5.0689,0.49384 -15.951,1.21389 -30.799,5.42546 -45.8663,13.00976 -9.5884,4.82647 -19.7591,11.29993 -28.3299,18.03169 -3.1878,2.50368 -3.8943,2.94415 -3.6295,2.26256 l 0,0 z"/></g><path id="path6135" d="M 907.09306,734.30547 C 830.95058,838.48455 762.69808,750.66882 742.94334,689.87 723.18861,629.07117 726.78925,517.90894 849.62474,557.43616" style="fill:#fff;fill-opacity:1;stroke:#6a5000;stroke-width:5.81160593;stroke-linecap:butt;stroke-linejoin:miter;stroke-miterlimit:4;stroke-opacity:1;stroke-dasharray:none"/><path style="fill:#fff;fill-opacity:1;stroke:#6a5000;stroke-width:5.81160593;stroke-linecap:butt;stroke-linejoin:miter;stroke-miterlimit:4;stroke-opacity:1;stroke-dasharray:none" id="path6137" d="m 1092.9422,734.21667 c 75.5509,104.60891 -29.058,142.38435 -92.98565,142.38435 -63.92767,0 -168.53658,-37.77544 -92.98571,-142.38436"/><path id="path6139" d="m 1150.2883,557.43614 c 122.8355,-39.52721 126.4362,71.63502 106.6815,132.43385 -19.7548,60.79882 -88.0073,148.61456 -164.1498,44.43548" style="fill:#fff;fill-opacity:1;stroke:#6a5000;stroke-width:5.81160593;stroke-linecap:butt;stroke-linejoin:miter;stroke-miterlimit:4;stroke-opacity:1;stroke-dasharray:none"/><path style="fill:#fff;fill-opacity:1;stroke:#6a5000;stroke-width:5.81160593;stroke-linecap:butt;stroke-linejoin:miter;stroke-miterlimit:4;stroke-opacity:1;stroke-dasharray:none" id="path6141" d="m 999.881,448.26858 c 0.3656,-129.03805 107.1999,-98.11146 158.9185,-60.5357 51.7185,37.57569 114.145,129.62425 -8.4645,169.84697"/><path id="path6143" d="M 849.57804,557.57985 C 726.96856,517.35712 789.39511,425.30859 841.11365,387.73284 892.83219,350.1571 999.66644,319.23048 1000.0321,448.26862" style="fill:#fff;fill-opacity:1;stroke:#6a5000;stroke-width:5.81160593;stroke-linecap:butt;stroke-linejoin:miter;stroke-miterlimit:4;stroke-opacity:1;stroke-dasharray:none"/><path style="fill:none;stroke:#6a5000;stroke-width:5.8119998;stroke-linecap:butt;stroke-linejoin:miter;stroke-miterlimit:4;stroke-opacity:1;stroke-dasharray:none" id="path2999" d="m 999.99991,442 0,110"/><path style="fill:#d1d159;fill-opacity:1;stroke:#d1d159;stroke-width:3.20000005;stroke-linecap:butt;stroke-linejoin:miter;stroke-miterlimit:4;stroke-opacity:1;stroke-dasharray:none;filter:url(#filter5728)" id="path6145" d="m 1105,245 c -30,0 -63.0005,20 -105,20 -41.99953,0 -75,-20 -105,-20 -30,0 -45,20 -5,80 -95,-70 -35,-117 5,-117 40,0 63.00047,17 105,17 41.9995,0 65,-17 105,-17 40,0 100,47 5,117 40,-60 25,-80 -5,-80 z" transform="matrix(-0.1795885,-0.55271657,0.55271657,-0.1795885,842.38794,1268.6269)"/><path id="path6147" d="m 862.18706,718.34289 c -21.62925,65.07927 -58.38224,40.35693 -65.56578,18.24827 -7.18354,-22.10866 -1.91798,-37.87441 -9.46061,-61.08824 -7.54263,-23.21382 -21.06944,-32.87358 -28.25298,-54.98224 -7.18354,-22.10866 8.01883,-63.71231 63.7699,-23.77544" style="fill:none;stroke:#6a5000;stroke-width:5.81160593;stroke-linecap:butt;stroke-linejoin:miter;stroke-miterlimit:4;stroke-opacity:1;stroke-dasharray:none"/><g id="g6149" transform="matrix(-0.58116059,0,0,-0.58116059,1581.1172,960.8693)"><path style="fill:#d1d159;fill-opacity:1;stroke:#d1d159;stroke-width:3.20000005;stroke-linecap:butt;stroke-linejoin:miter;stroke-miterlimit:4;stroke-opacity:1;stroke-dasharray:none;filter:url(#filter5728)" id="path6151" d="m 1105,245 c -30,0 -63.0005,20 -105,20 -41.99953,0 -75,-20 -105,-20 -30,0 -45,20 -5,80 -95,-70 -35,-117 5,-117 40,0 63.00047,17 105,17 41.9995,0 65,-17 105,-17 40,0 100,47 5,117 40,-60 25,-80 -5,-80 z"/><path id="path6153" d="m 890,325 c -95,-70 -35,-117 5,-117 40,0 63.00047,17 105,17 41.9995,0 65,-17 105,-17 40,0 100,47 5,117" style="fill:none;stroke:#6a5000;stroke-width:10;stroke-linecap:butt;stroke-linejoin:miter;stroke-miterlimit:4;stroke-opacity:1;stroke-dasharray:none"/></g><g id="g6155" transform="matrix(-0.1795885,0.55271657,-0.55271657,-0.1795885,1516.7021,163.19376)"><path id="path6157" d="m 1105,245 c -30,0 -63.0005,20 -105,20 -41.99953,0 -75,-20 -105,-20 -30,0 -45,20 -5,80 -95,-70 -35,-117 5,-117 40,0 63.00047,17 105,17 41.9995,0 65,-17 105,-17 40,0 100,47 5,117 40,-60 25,-80 -5,-80 z" style="fill:#d1d159;fill-opacity:1;stroke:#d1d159;stroke-width:3.20000005;stroke-linecap:butt;stroke-linejoin:miter;stroke-miterlimit:4;stroke-opacity:1;stroke-dasharray:none;filter:url(#filter5728)"/><path style="fill:none;stroke:#6a5000;stroke-width:10;stroke-linecap:butt;stroke-linejoin:miter;stroke-miterlimit:4;stroke-opacity:1;stroke-dasharray:none" id="path6159" d="m 890,325 c -95,-70 -35,-117 5,-117 40,0 63.00047,17 105,17 41.9995,0 65,-17 105,-17 40,0 100,47 5,117"/></g><g id="g6161" transform="matrix(0.47016879,0.34159762,-0.34159762,0.47016879,738.1623,-22.039248)"><path style="fill:#d1d159;fill-opacity:1;stroke:#d1d159;stroke-width:3.20000005;stroke-linecap:butt;stroke-linejoin:miter;stroke-miterlimit:4;stroke-opacity:1;stroke-dasharray:none;filter:url(#filter5728)" id="path6163" d="m 1105,245 c -30,0 -63.0005,20 -105,20 -41.99953,0 -75,-20 -105,-20 -30,0 -45,20 -5,80 -95,-70 -35,-117 5,-117 40,0 63.00047,17 105,17 41.9995,0 65,-17 105,-17 40,0 100,47 5,117 40,-60 25,-80 -5,-80 z"/><path id="path6165" d="m 890,325 c -95,-70 -35,-117 5,-117 40,0 63.00047,17 105,17 41.9995,0 65,-17 105,-17 40,0 100,47 5,117" style="fill:none;stroke:#6a5000;stroke-width:10;stroke-linecap:butt;stroke-linejoin:miter;stroke-miterlimit:4;stroke-opacity:1;stroke-dasharray:none"/></g><g id="g6167" transform="matrix(0.47016879,-0.34159762,0.34159762,0.47016879,321.41318,661.156)"><path id="path6169" d="m 1105,245 c -30,0 -63.0005,20 -105,20 -41.99953,0 -75,-20 -105,-20 -30,0 -45,20 -5,80 -95,-70 -35,-117 5,-117 40,0 63.00047,17 105,17 41.9995,0 65,-17 105,-17 40,0 100,47 5,117 40,-60 25,-80 -5,-80 z" style="fill:#d1d159;fill-opacity:1;stroke:#d1d159;stroke-width:3.20000005;stroke-linecap:butt;stroke-linejoin:miter;stroke-miterlimit:4;stroke-opacity:1;stroke-dasharray:none;filter:url(#filter5728)"/><path style="fill:none;stroke:#6a5000;stroke-width:10;stroke-linecap:butt;stroke-linejoin:miter;stroke-miterlimit:4;stroke-opacity:1;stroke-dasharray:none" id="path6171" d="m 890,325 c -95,-70 -35,-117 5,-117 40,0 63.00047,17 105,17 41.9995,0 65,-17 105,-17 40,0 100,47 5,117"/></g><path id="path6310" d="m 835.17391,552.9627 104.61621,33.99187" style="fill:none;stroke:#6a5000;stroke-width:5.8119998;stroke-linecap:butt;stroke-linejoin:miter;stroke-miterlimit:4;stroke-opacity:1;stroke-dasharray:none"/><path style="fill:none;stroke:#6a5000;stroke-width:5.8119998;stroke-linecap:butt;stroke-linejoin:miter;stroke-miterlimit:4;stroke-opacity:1;stroke-dasharray:none" id="path6312" d="m 898.72899,745.62305 64.65638,-88.99186"/><path id="path6314" d="m 1099.6245,743.62306 -64.6563,-88.99187" style="fill:none;stroke:#6a5000;stroke-width:5.8119998;stroke-linecap:butt;stroke-linejoin:miter;stroke-miterlimit:4;stroke-opacity:1;stroke-dasharray:none"/><path style="fill:none;stroke:#6a5000;stroke-width:5.8119998;stroke-linecap:butt;stroke-linejoin:miter;stroke-miterlimit:4;stroke-opacity:1;stroke-dasharray:none" id="path6316" d="m 1158.041,555.0841 -104.6162,33.9918"/><path style="fill:none;stroke:#6a5000;stroke-width:5.8120000000000003;stroke-linecap:butt;stroke-linejoin:miter;stroke-opacity:1;stroke-miterlimit:4;stroke-dasharray:none" id="path6318" d="m 1000,734 0,-54"/><path id="path6320" d="m 1117.931,648.31811 -51.357,-16.68692" style="fill:none;stroke:#6a5000;stroke-width:5.8119998;stroke-linecap:butt;stroke-linejoin:miter;stroke-miterlimit:4;stroke-opacity:1;stroke-dasharray:none"/><path style="fill:none;stroke:#6a5000;stroke-width:5.8119998;stroke-linecap:butt;stroke-linejoin:miter;stroke-miterlimit:4;stroke-opacity:1;stroke-dasharray:none" id="path6322" d="m 1072.8854,509.6819 -31.7404,43.68687"/><path id="path6324" d="m 927.11464,509.68187 31.74036,43.6869" style="fill:none;stroke:#6a5000;stroke-width:5.8119998;stroke-linecap:butt;stroke-linejoin:miter;stroke-miterlimit:4;stroke-opacity:1;stroke-dasharray:none"/><path style="fill:none;stroke:#6a5000;stroke-width:5.8119998;stroke-linecap:butt;stroke-linejoin:miter;stroke-miterlimit:4;stroke-opacity:1;stroke-dasharray:none" id="path6326" d="M 882.06897,648.31809 933.426,631.63121"/><path style="fill:#fbeb0f;fill-opacity:1;stroke:#6a5000;stroke-width:4.79623461;stroke-miterlimit:4;stroke-opacity:1;stroke-dasharray:none" id="path3933" d="m 1070,600 a 77.5,75 0 1 1 0,-10e-6" transform="matrix(1.0255324,0,0,1.0597168,-17.840904,-25.830082)"/><path style="fill:none;stroke:#6a5000;stroke-width:2;stroke-linecap:butt;stroke-linejoin:miter;stroke-miterlimit:4;stroke-opacity:1;stroke-dasharray:none" id="path6456" d="m 925.75379,634.74874 49.49747,49.49747"/><path style="fill:none;stroke:#6a5000;stroke-width:2;stroke-linecap:butt;stroke-linejoin:miter;stroke-miterlimit:4;stroke-opacity:1;stroke-dasharray:none" id="path6458" d="m 1024.7487,535.75379 49.4975,49.49747"/><path style="fill:none;stroke:#6a5000;stroke-width:2;stroke-linecap:butt;stroke-linejoin:miter;stroke-miterlimit:4;stroke-opacity:1;stroke-dasharray:none" id="path6460" d="m 992.92893,532.21825 84.85277,84.85282"/><path style="fill:none;stroke:#6a5000;stroke-width:2;stroke-linecap:butt;stroke-linejoin:miter;stroke-miterlimit:4;stroke-opacity:1;stroke-dasharray:none" id="path6462" d="M 968.18019,535.75379 1074.2462,641.81981"/><path style="fill:none;stroke:#6a5000;stroke-width:2;stroke-linecap:butt;stroke-linejoin:miter;stroke-miterlimit:4;stroke-opacity:1;stroke-dasharray:none" id="path6464" d="m 922.21825,602.92893 84.85285,84.85282"/><path style="fill:none;stroke:#6a5000;stroke-width:2;stroke-linecap:butt;stroke-linejoin:miter;stroke-miterlimit:4;stroke-opacity:1;stroke-dasharray:none" id="path6466" d="M 925.75379,578.18019 1031.8198,684.24621"/><path style="fill:none;stroke:#6a5000;stroke-width:2;stroke-linecap:butt;stroke-linejoin:miter;stroke-miterlimit:4;stroke-opacity:1;stroke-dasharray:none" id="path6468" d="M 936.36039,560.50253 1049.4975,673.63961"/><path style="fill:none;stroke:#6a5000;stroke-width:2;stroke-linecap:butt;stroke-linejoin:miter;stroke-miterlimit:4;stroke-opacity:1;stroke-dasharray:none" id="path6470" d="M 1063.6396,659.49747 950.50253,546.36039"/><path id="path6472" d="m 1024.7487,684.24619 49.4975,-49.49747" style="fill:none;stroke:#6a5000;stroke-width:2;stroke-linecap:butt;stroke-linejoin:miter;stroke-miterlimit:4;stroke-opacity:1;stroke-dasharray:none"/><path id="path6474" d="m 925.75378,585.25129 49.49749,-49.49751" style="fill:none;stroke:#6a5000;stroke-width:2;stroke-linecap:butt;stroke-linejoin:miter;stroke-miterlimit:4;stroke-opacity:1;stroke-dasharray:none"/><path id="path6476" d="m 922.21824,617.07106 84.85286,-84.8528" style="fill:none;stroke:#6a5000;stroke-width:2;stroke-linecap:butt;stroke-linejoin:miter;stroke-miterlimit:4;stroke-opacity:1;stroke-dasharray:none"/><path id="path6478" d="M 925.75378,641.8198 1031.8198,535.75378" style="fill:none;stroke:#6a5000;stroke-width:2;stroke-linecap:butt;stroke-linejoin:miter;stroke-miterlimit:4;stroke-opacity:1;stroke-dasharray:none"/><path id="path6480" d="M 992.92892,687.78173 1077.7817,602.9289" style="fill:none;stroke:#6a5000;stroke-width:2;stroke-linecap:butt;stroke-linejoin:miter;stroke-miterlimit:4;stroke-opacity:1;stroke-dasharray:none"/><path id="path6482" d="M 968.18018,684.2462 1074.2462,578.18018" style="fill:none;stroke:#6a5000;stroke-width:2;stroke-linecap:butt;stroke-linejoin:miter;stroke-miterlimit:4;stroke-opacity:1;stroke-dasharray:none"/><path id="path6484" d="M 950.50253,673.6396 1063.6396,560.50249" style="fill:none;stroke:#6a5000;stroke-width:2;stroke-linecap:butt;stroke-linejoin:miter;stroke-miterlimit:4;stroke-opacity:1;stroke-dasharray:none"/><path id="path6486" d="M 1049.4975,546.36038 936.36039,659.49746" style="fill:none;stroke:#6a5000;stroke-width:2;stroke-linecap:butt;stroke-linejoin:miter;stroke-miterlimit:4;stroke-opacity:1;stroke-dasharray:none"/></svg>