<svg xmlns="http://www.w3.org/2000/svg" xmlns:svg="http://www.w3.org/2000/svg" id="svg2" width="420" height="500" x="0" y="0" enable-background="new 30.5 31.5 412 533" version="1.1" viewBox="30.5 31.5 420 500" xml:space="preserve"><metadata id="metadata4"/><path style="fill:#e00e00;fill-opacity:1;stroke:#000" id="path4224" d="M 36.845963,32.7 C 30.285481,272.4597 74.816705,408.70539 240.5,530.88 406.18329,408.70539 450.71452,272.4597 444.15404,32.7 c -174.74708,0.212842 -297.74398,0.0087 -407.308077,0 z"/><path id="path4219" d="M 210 70.044922 A 126.46302 126.46302 0 0 0 83.537109 196.50781 A 126.46302 126.46302 0 0 0 210 322.9707 A 126.46302 126.46302 0 0 0 336.46289 196.50781 A 126.46302 126.46302 0 0 0 210 70.044922 z M 210 99.044922 A 97.46302 97.46302 0 0 1 307.46289 196.50781 A 97.46302 97.46302 0 0 1 210 293.9707 A 97.46302 97.46302 0 0 1 112.53711 196.50781 A 97.46302 97.46302 0 0 1 210 99.044922 z" transform="translate(30.5,31.5)" style="opacity:.98999999;fill:#ffe000;fill-opacity:1;fill-rule:evenodd;stroke:#000;stroke-width:1.14281297;stroke-linecap:round;stroke-linejoin:bevel;stroke-miterlimit:4;stroke-dasharray:none;stroke-opacity:1"/></svg>