<svg xmlns="http://www.w3.org/2000/svg" xmlns:svg="http://www.w3.org/2000/svg" id="svg2" width="400" height="500" x="0" y="0" enable-background="new 30.5 31.5 412 533" version="1.1" viewBox="30.5 31.5 400 500" xml:space="preserve"><metadata id="metadata4"/><path style="fill:#ffe000;fill-opacity:1" id="path8" d="M 230.44,531.14 C 156.12,477.22 105.18,409.12 74.7,322.98 47.06,244.88 35.97,150.23 40.79,33.63 l 0.02,-0.46 379.82,0 0.02,0.46 c 4.81,116.6 -6.28,211.24 -33.91,289.35 C 356.26,409.12 305.32,477.22 231,531.14 l -0.28,0.2 -0.28,-0.2 z"/><path id="path10" d="M 419.96,33.21 C 429.03,252.66 383.7,419.16 230.5,530.31 77.31,419.16 31.99,252.66 41.06,33.21 l 189.45,0 189.45,0 m 0.92,-0.95 -0.92,0 -189.45,0 -189.45,0 -0.92,0 -0.04,0.92 c -4.82,116.66 6.28,211.36 33.93,289.52 30.51,86.24 81.51,154.41 155.91,208.39 l 0.56,0.41 0.56,-0.41 C 305.46,477.11 356.46,408.94 386.97,322.7 414.62,244.54 425.72,149.84 420.9,33.18 l -0.04,-0.92 0,0 z"/><path style="fill:#e00e00;fill-opacity:1;fill-rule:evenodd;stroke:#000;stroke-width:1px;stroke-linecap:butt;stroke-linejoin:round;stroke-opacity:1" id="path4225" d="m 187.5,338.5 c 7.39971,1.66063 16.70379,4 33,4 0,-16.29621 -2.33937,-25.60029 -4,-33 l 14,0 14,0 c -1.66063,7.39971 -4,16.70379 -4,33 16.29621,0 25.60029,-2.33937 33,-4 l 0,14 0,14 c -7.39971,-1.66063 -16.70379,-4 -33,-4 0,16.29621 2.33937,25.60029 4,33 l -14,0 -14,0 c 1.66063,-7.39971 4,-16.70379 4,-33 -16.29621,0 -25.60029,2.33937 -33,4 l 0,-14 z"/><path id="path4231" d="m 238.5,107.77266 c 7.39971,1.66063 16.70379,4 33,4 0,-16.29621 -2.33937,-25.60029 -4,-33 l 14,0 14,0 c -1.66063,7.39971 -4,16.70379 -4,33 16.29621,0 25.60029,-2.33937 33,-4 l 0,14 0,14 c -7.39971,-1.66063 -16.70379,-4 -33,-4 0,16.29621 2.33937,25.60029 4,33 l -14,0 -14,0 c 1.66063,-7.39971 4,-16.70379 4,-33 -16.29621,0 -25.60029,2.33937 -33,4 l 0,-14 z" style="fill:#e00e00;fill-opacity:1;fill-rule:evenodd;stroke:#000;stroke-width:1px;stroke-linecap:butt;stroke-linejoin:round;stroke-opacity:1"/><path style="fill:#e00e00;fill-opacity:1;fill-rule:evenodd;stroke:#000;stroke-width:1px;stroke-linecap:butt;stroke-linejoin:round;stroke-opacity:1" id="path4235" d="m 307.5,190.43399 c 7.39971,1.66063 16.70379,4 33,4 0,-16.29621 -2.33937,-25.60029 -4,-33 l 14,0 14,0 c -1.66063,7.39971 -4,16.70379 -4,33 16.29621,0 25.60029,-2.33937 33,-4 l 0,14 0,14 c -7.39971,-1.66063 -16.70379,-4 -33,-4 0,16.29621 2.33937,25.60029 4,33 l -14,0 -14,0 c 1.66063,-7.39971 4,-16.70379 4,-33 -16.29621,0 -25.60029,2.33937 -33,4 l 0,-14 z"/><path id="path4237" d="m 279.1486,292.80566 c 7.39971,1.66063 16.70379,4 33,4 0,-16.29621 -2.33937,-25.60029 -4,-33 l 14,0 14,0 c -1.66063,7.39971 -4,16.70379 -4,33 16.29621,0 25.60029,-2.33937 33,-4 l 0,14 0,14 c -7.39971,-1.66063 -16.70379,-4 -33,-4 0,16.29621 2.33937,25.60029 4,33 l -14,0 -14,0 c 1.66063,-7.39971 4,-16.70379 4,-33 -16.29621,0 -25.60029,2.33937 -33,4 l 0,-14 z" style="fill:#e00e00;fill-opacity:1;fill-rule:evenodd;stroke:#000;stroke-width:1px;stroke-linecap:butt;stroke-linejoin:round;stroke-opacity:1"/><path style="fill:#e00e00;fill-opacity:1;fill-rule:evenodd;stroke:#000;stroke-width:1px;stroke-linecap:butt;stroke-linejoin:round;stroke-opacity:1" id="path4249" d="m 222.5,107.77266 c -7.39971,1.66063 -16.70379,4 -33,4 0,-16.29621 2.33937,-25.60029 4,-33 l -14,0 -14,0 c 1.66063,7.39971 4,16.70379 4,33 -16.29621,0 -25.60029,-2.33937 -33,-4 l 0,14 0,14 c 7.39971,-1.66063 16.70379,-4 33,-4 0,16.29621 -2.33937,25.60029 -4,33 l 14,0 14,0 c -1.66063,-7.39971 -4,-16.70379 -4,-33 16.29621,0 25.60029,2.33937 33,4 l 0,-14 z"/><path id="path4251" d="m 153.5,190.43399 c -7.39971,1.66063 -16.70379,4 -33,4 0,-16.29621 2.33937,-25.60029 4,-33 l -14,0 -14,0 c 1.66063,7.39971 4,16.70379 4,33 -16.29621,0 -25.60029,-2.33937 -33,-4 l 0,14 0,14 c 7.39971,-1.66063 16.70379,-4 33,-4 0,16.29621 -2.33937,25.60029 -4,33 l 14,0 14,0 c -1.66063,-7.39971 -4,-16.70379 -4,-33 16.29621,0 25.60029,2.33937 33,4 l 0,-14 z" style="fill:#e00e00;fill-opacity:1;fill-rule:evenodd;stroke:#000;stroke-width:1px;stroke-linecap:butt;stroke-linejoin:round;stroke-opacity:1"/><path style="fill:#e00e00;fill-opacity:1;fill-rule:evenodd;stroke:#000;stroke-width:1px;stroke-linecap:butt;stroke-linejoin:round;stroke-opacity:1" id="path4253" d="m 181.8514,292.80566 c -7.39971,1.66063 -16.70379,4 -33,4 0,-16.29621 2.33937,-25.60029 4,-33 l -14,0 -14,0 c 1.66063,7.39971 4,16.70379 4,33 -16.29621,0 -25.60029,-2.33937 -33,-4 l 0,14 0,14 c 7.39971,-1.66063 16.70379,-4 33,-4 0,16.29621 -2.33937,25.60029 -4,33 l 14,0 14,0 c -1.66063,-7.39971 -4,-16.70379 -4,-33 16.29621,0 25.60029,2.33937 33,4 l 0,-14 z"/></svg>