<svg xmlns="http://www.w3.org/2000/svg" xmlns:svg="http://www.w3.org/2000/svg" id="svg2" width="450" height="500" x="0" y="0" enable-background="new 30.5 31.5 412 533" version="1.1" viewBox="30.5 31.5 450 500" xml:space="preserve"><metadata id="metadata4"/><path style="fill:#32ac60;fill-opacity:1;fill-rule:evenodd;stroke:none;stroke-width:1px;stroke-linecap:butt;stroke-linejoin:miter;stroke-opacity:1" id="path4225" d="m 255.5,530 185,0 c 20,0 38.5,-18.87241 38.5,-38.5 L 479,33 255.5,33 32,33 32,491.5 c 0,19.62759 18.5,38.5 38.5,38.5 l 185,0"/><path id="path4227" d="m 255.5,530 185,0 c 20,0 38.5,-18.87241 38.5,-38.5 L 479,33 45.15832,519.46589 C 52.11732,525.87051 61.14455,530 70.5,530 l 185,0" style="fill:#ffe000;fill-opacity:1;fill-rule:evenodd;stroke:none;stroke-width:1px;stroke-linecap:butt;stroke-linejoin:miter;stroke-opacity:1"/><path style="fill:none;fill-rule:evenodd;stroke:#000;stroke-width:1px;stroke-linecap:butt;stroke-linejoin:miter;stroke-opacity:1" id="path4239" d="M 479,33 45.15832,519.46589"/><path id="path4241" d="m 255.5,530 185,0 c 20,0 38.5,-18.87241 38.5,-38.5 L 479,33 255.5,33 32,33 32,491.5 c 0,19.62759 18.5,38.5 38.5,38.5 l 185,0" style="fill:none;fill-rule:evenodd;stroke:#000;stroke-width:1px;stroke-linecap:butt;stroke-linejoin:miter;stroke-opacity:1"/></svg>