<svg xmlns="http://www.w3.org/2000/svg" xmlns:svg="http://www.w3.org/2000/svg" id="svg2" width="420" height="500" x="0" y="0" enable-background="new 30.5 31.5 412 533" version="1.1" viewBox="30.5 31.5 420 500" xml:space="preserve"><metadata id="metadata4"/><path style="fill:#0085ca;fill-opacity:1;fill-rule:evenodd" id="path4218" d="m 440,32.7 c 2.09,102.46 -3.38,187.49 -43.93,296.59 C 368.02,404.77 321.86,474.06 240.5,530.88 159.14,474.06 112.98,404.77 84.93,329.29 44.38,220.19 38.91,135.16 41,32.7 c 133,0.29 266,0 399,0 z"/><path style="fill:#ffe000;fill-opacity:1;fill-rule:evenodd;stroke:none;stroke-width:1px;stroke-linecap:butt;stroke-linejoin:miter;stroke-opacity:1" id="path4262" d="m 365.02731,396.02731 c 12.18647,-20.97611 23.40805,-45.75801 33.08196,-71.91804 L 293,219 438,74 440.41548,71.43215 440,32.7 374.14361,32.856395 240.5,166.5 106.8564,32.856394 41,32.699999 40.58452,71.432149 43,73.999999 188.00001,219 82.89074,324.10927 c 9.67391,26.16003 20.89549,50.94193 33.08196,71.91804 L 240.5,271.5 Z"/><path style="fill:none;fill-rule:evenodd;stroke:#000;stroke-width:1px;stroke-linecap:butt;stroke-linejoin:miter;stroke-opacity:1" id="path4264" d="M 106.85639,32.856394 240.5,166.5 374.14361,32.856395 M 40.58452,71.432149 43,73.999999 188,219 82.89073,324.10927 M 115.97269,396.02731 240.5,271.5 365.02731,396.02731"/><path style="fill:none;stroke:#000" id="path4224" d="m 440,32.7 c 2.09,102.46 -3.38,187.49 -43.93,296.59 C 368.02,404.77 321.86,474.06 240.5,530.88 159.14,474.06 112.98,404.77 84.93,329.29 44.38,220.19 38.91,135.16 41,32.7 c 133,0.29 266,0 399,0 z"/><path id="path4242" d="M 440.41548,71.43215 438,74 293,219 398.10927,324.10927" style="fill:none;fill-rule:evenodd;stroke:#000;stroke-width:1px;stroke-linecap:butt;stroke-linejoin:miter;stroke-opacity:1"/></svg>