<svg xmlns="http://www.w3.org/2000/svg" id="svg2" width="400" height="500" version="1"><metadata id="metadata51"/><path id="path2418" fill="#003f6f" d="m396.64 1.45h-393.73v301.05 0.09c0 108.73 88.14 196.86 196.86 196.86s196.87-88.14 196.87-196.86v-0.09-301.05z"/><path id="path4300" fill="none" d="m396.64 1.45h-393.73v301.05 0.09c0 108.73 88.14 196.86 196.86 196.86s196.87-88.14 196.87-196.86v-0.09-301.05z"/><path id="path4828" fill="#ae9251" d="m277.84 39.44-20.88 113.11 121.83-17.96 1.84 152.44-119.89-19.52 17.19 183.95h-156.22l17.09-183.95-119.89 19.52 1.84-152.44 121.84 17.96-20.88-119.11h156.03z"/></svg>