<svg xmlns="http://www.w3.org/2000/svg" xmlns:svg="http://www.w3.org/2000/svg" id="svg2" width="420" height="500" x="0" y="0" enable-background="new 30.5 31.5 412 533" version="1.1" viewBox="30.5 31.5 420 500" xml:space="preserve"><metadata id="metadata4"/><path id="path4218" d="m440 32.7c2.09 102.46-3.38 187.49-43.93 296.59C368.02 404.77 321.86 474.06 240.5 530.88 159.14 474.06 112.98 404.77 84.93 329.29 44.38 220.19 38.91 135.16 41 32.7c133 0.29 266 0 399 0z" style="fill-rule:evenodd;fill:#ffe000"/><path id="path4222" d="m73.87 297.5 166.63 0 0-129 194.74 0C424.15 252.39 392.39 428.71 240.5 530.88 158.66 471.33 108.96 405.6 73.87 297.5Z" style="fill-rule:evenodd;fill:#e00e00"/><path id="path4314" d="m73.87 297.5 166.63 0 0-129 194.74 0" style="fill:none;stroke:#000"/><path id="path4224" d="m440 32.7c2.09 102.46-3.38 187.49-43.93 296.59C368.02 404.77 321.86 474.06 240.5 530.88 159.14 474.06 112.98 404.77 84.93 329.29 44.38 220.19 38.91 135.16 41 32.7c133 0.29 266 0 399 0z" style="fill:none;stroke:#000"/></svg>