<svg xmlns="http://www.w3.org/2000/svg" xmlns:svg="http://www.w3.org/2000/svg" id="svg2" width="400" height="500" x="0" y="0" enable-background="new 30.5 31.5 412 533" version="1.1" viewBox="30.5 31.5 400 500" xml:space="preserve"><metadata id="metadata4"/><path id="path4148" fill="#0085ca" d="M230.55 531.13C304.87 477.21 355.81 409.11 386.29 322.97 413.93 244.87 425.02 150.22 420.2 33.62l-0.02-0.46-379.82 0-0.02 0.46c-4.81 116.6 6.28 211.24 33.91 289.35 30.48 86.14 81.42 154.24 155.74 208.16l0.28 0.2 0.28-0.2z"/><path id="path4142" d="m322.36 441.64 0.01-0.04-20.42-132.83c-1.58-11.84 6.06-23.15 19.04-25.24l-0.44-35.72-32.24 0 0-93.66 13.66 0-65.5-85.46c7.89-4.67 5.14-17.43-5.96-17.43-11.1 0-13.85 12.76-5.96 17.43l-65.5 85.46 13.66 0 0 93.66-32.24 0-0.44 35.72c12.98 2.09 20.62 13.4 19.04 25.24l-20.29 132.79-0.21 0.17c27.14 35.85 56.04 62.05 91.95 89.08 35.9-27.03 64.72-53.32 91.86-89.17z" style="fill-rule:evenodd;fill:#fff"/><path id="path10" d="m41.04 33.21c-9.07 219.45 36.25 385.95 189.45 497.1 84.47-61.29 136.15-139.41 163.99-233.97 2.09-7.09 4.04-14.27 5.87-21.54 11.45-45.69 17.77-95.02 19.88-147.94 1.2-30.06 1.05-61.28-0.29-93.65l-189.45 0-189.45 0m-0.92-0.95 0.92 0 189.45 0 189.45 0 0.92 0 0.04 0.92c4.82 116.66-6.28 211.36-33.93 289.52-30.51 86.24-81.51 154.41-155.91 208.39l-0.56 0.41-0.56-0.41C155.54 477.11 104.54 408.94 74.03 322.7 46.38 244.54 35.28 149.84 40.1 33.18l0.04-0.92 0 0z"/><path id="path4224" d="m172.71 247.81 115.6 0" style="fill:none;stroke:#000"/><path id="path4226" d="m288.31 154.15-115.61 0" style="fill:none;stroke:#000"/><path id="path4152" d="M322.26 442.18 301.94 308.77c-1.58-11.84 6.06-23.15 19.04-25.24l-0.44-35.72-32.24 0 0-93.66 13.66 0-65.5-85.46c7.89-4.67 5.14-17.43-5.96-17.43-11.1 0-13.85 12.76-5.96 17.43l-65.5 85.46 13.66 0 0.01 93.66-32.25 0-0.44 35.72c12.98 2.09 20.62 13.4 19.04 25.24l-20.29 132.79-0.12 0.9" style="fill:none;stroke:#000"/><rect id="rect4222" width="135.98" height="15.29" x="162.51" y="210.43" style="fill:#fff;stroke-linecap:round;stroke-linejoin:round;stroke-miterlimit:4;stroke:#000"/></svg>