<svg xmlns="http://www.w3.org/2000/svg" xmlns:svg="http://www.w3.org/2000/svg" id="svg2" width="420" height="500" x="0" y="0" enable-background="new 30.5 31.5 412 533" version="1.1" viewBox="30.5 31.5 420 500" xml:space="preserve"><metadata id="metadata4"/><path style="fill:#0085ca;fill-opacity:1;fill-rule:evenodd" id="path4218" d="m 41,32.7 c -2.09,102.46 3.38,187.49 43.93,296.59 28.05,75.48 74.21,144.77 155.57,201.59 C 321.86,474.06 368.02,404.77 396.07,329.29 436.62,220.19 442.09,135.16 440,32.7 c -133,0.29 -266,0 -399,0 z"/><path id="path4238" d="m 77.34621,308.5 28.65379,0 0,-52 36.5,0 0,-53 36.5,0 0,-53 36.5,0 0,-55 c 16.66667,0 33.33333,0 50,0 l 0,55 36.5,0 0,53 36.5,0 0,53 36.5,0 0,52 28.65379,0 C 375.49111,391.09251 331.86565,466.91358 240.5,530.88 149.13435,466.91358 105.50889,391.09251 77.34621,308.5 Z" style="fill:#fff;fill-rule:evenodd;stroke:none;stroke-width:1px;stroke-linecap:butt;stroke-linejoin:miter;stroke-opacity:1"/><path style="fill:none;stroke:#000" id="path4224" d="m 41,32.7 c -2.09,102.46 3.38,187.49 43.93,296.59 28.05,75.48 74.21,144.77 155.57,201.59 C 321.86,474.06 368.02,404.77 396.07,329.29 436.62,220.19 442.09,135.16 440,32.7 c -133,0.29 -266,0 -399,0 z"/><path style="fill:none;fill-rule:evenodd;stroke:#000;stroke-width:1px;stroke-linecap:butt;stroke-linejoin:miter;stroke-opacity:1" id="path4236" d="m 77.34621,308.5 28.65379,0 0,-52 36.5,0 0,-53 36.5,0 0,-53 36.5,0 0,-55 50,0 0,55 36.5,0 0,53 36.5,0 0,53 36.5,0 0,52 28.65379,0"/></svg>