<svg xmlns="http://www.w3.org/2000/svg" xmlns:svg="http://www.w3.org/2000/svg" id="svg3156" width="440" height="500" version="1.0"><metadata id="metadata3161"/><g id="layer1" transform="translate(-419.4518,-150.34191)"><path style="fill:#0085ca;fill-opacity:1;fill-rule:evenodd;stroke:#000;stroke-width:1px;stroke-linecap:butt;stroke-linejoin:miter;stroke-opacity:1" id="path4146" d="m 821.83984,470.02726 c 17.40504,-39.26455 32.61196,-79.93167 32.61196,-144.94713 l 0,-173.23822 -215,0 -215,0 0,173.23822 c 0,65.01546 15.20692,105.68258 32.61196,144.94713 31.34254,70.70654 80.01787,131.1733 182.38804,178.81465 C 741.82197,601.20056 790.4973,540.7338 821.83984,470.02726 Z"/><path style="fill:#fff;stroke:#000;stroke-opacity:1" id="path3414" d="m 671.4518,423.36766 139,43.9 -103,-98.9 103,-98.9 -139,43.9 -32,-141 -32,141 -139,-43.9 103,98.9 -103,98.9 139,-43.9 32,141 z"/></g></svg>