<svg xmlns="http://www.w3.org/2000/svg" xmlns:svg="http://www.w3.org/2000/svg" id="svg2" width="400" height="500" version="1"><metadata id="metadata51"/><defs id="defs4"><clipPath id="clipPath2516"><path id="path2518" d="M0 0 0 0 0 0 0 0Z"/></clipPath><clipPath id="clipPath2500"><path id="path2502" d="M0 0 0 0 0 0 0 0Z"/></clipPath></defs><path style="fill:#0085ca;fill-opacity:1;fill-rule:nonzero" id="path2418" d="m 3.135,1.3230837 393.73,0 0,301.0499963 0,0 c 0,0.03 0,0.06 0,0.09 0,108.73 -88.14,196.86 -196.86,196.86 -108.72,0 -196.87,-88.14 -196.87,-196.86 0,-0.03 0,-0.06 0,-0.09 l 0,0 0,-301.0499963 z"/><path style="fill:#fff;fill-opacity:1;fill-rule:evenodd;stroke:none;stroke-width:1px;stroke-linecap:butt;stroke-linejoin:miter;stroke-opacity:1" id="path4481" d="M 166.61996,496.54416 137.5,447.5 l 47.5,-80 -47.5,-80 47.5,-80 -47.5,-80 L 185,47.5 157.62749,1.398936 137.67758,1.4832927 165,47.5 l -47.5,80 47.5,80 -47.5,80 47.5,80 -47.5,80 25.91027,43.63835 c 7.42347,1.98392 15.32558,3.89896 23.20969,5.40581 z"/><path id="path4479" d="M 217.86902,498.64783 187.5,447.5 l 47.5,-80 -47.5,-80 47.5,-80 -47.5,-80 L 235,47.5 207.62749,1.398936 187.67758,1.4832927 215,47.5 l -47.5,80 47.5,80 -47.5,80 47.5,80 -47.5,80 30.8319,51.92741 z" style="fill:#fff;fill-opacity:1;fill-rule:evenodd;stroke:none;stroke-width:1px;stroke-linecap:butt;stroke-linejoin:miter;stroke-opacity:1"/><path id="path4477" d="M 257.62749,1.398936 237.67758,1.4832927 265,47.5 l -47.5,80 47.5,80 -47.5,80 47.5,80 -47.5,80 27.64591,46.56153 c 5.97124,-1.09086 11.65213,-2.76242 17.15013,-4.79977 L 237.5,447.5 l 47.5,-80 -47.5,-80 47.5,-80 -47.5,-80 47.5,-80 -27.37251,-46.101064" style="fill:#fff;fill-rule:evenodd;stroke:none;stroke-width:1px;stroke-linecap:butt;stroke-linejoin:miter;stroke-opacity:1"/><path style="fill:none;stroke:#000" id="path4300" d="m 3.135,1.3230837 393.73,0 0,301.0499963 0,0 c 0,0.03 0,0.06 0,0.09 0,108.73 -88.14,196.86 -196.86,196.86 -108.72,0 -196.87,-88.14 -196.87,-196.86 0,-0.03 0,-0.06 0,-0.09 l 0,0 0,-301.0499963 z"/><path style="fill:none;fill-rule:evenodd;stroke:#000;stroke-width:1px;stroke-linecap:butt;stroke-linejoin:miter;stroke-opacity:1" id="path4461" d="M 217.86902,498.64783 187.5,447.5 l 47.5,-80 -47.5,-80 47.5,-80 -47.5,-80 L 235,47.5 207.62749,1.398936 M 187.67758,1.4832927 215,47.5 l -47.5,80 47.5,80 -47.5,80 47.5,80 -47.5,80 30.8319,51.92741"/><path id="path4473" d="M 166.61996,496.54416 137.5,447.5 l 47.5,-80 -47.5,-80 47.5,-80 -47.5,-80 L 185,47.5 157.62749,1.398936 M 137.67758,1.483293 165,47.5 l -47.5,80 47.5,80 -47.5,80 47.5,80 -47.5,80 25.91027,43.63835" style="fill:none;fill-rule:evenodd;stroke:#000;stroke-width:1px;stroke-linecap:butt;stroke-linejoin:miter;stroke-opacity:1"/><path style="fill:none;fill-rule:evenodd;stroke:#000;stroke-width:1px;stroke-linecap:butt;stroke-linejoin:miter;stroke-opacity:1" id="path4475" d="M 262.29604,489.26176 237.5,447.5 l 47.5,-80 -47.5,-80 47.5,-80 -47.5,-80 L 285,47.5 257.62749,1.398936 M 237.67758,1.4832927 265,47.5 l -47.5,80 47.5,80 -47.5,80 47.5,80 -47.5,80 27.64591,46.56153"/></svg>